<?xml version="1.0" encoding="UTF-8"?><svg xmlns="http://www.w3.org/2000/svg" xmlns:xlink="http://www.w3.org/1999/xlink" height="451.4" preserveAspectRatio="xMidYMid meet" version="1.0" viewBox="0.0 0.0 461.6 451.4" width="461.6" zoomAndPan="magnify"><defs><clipPath id="a"><path d="M 0 0 L 461.558594 0 L 461.558594 451.398438 L 0 451.398438 Z M 0 0"/></clipPath></defs><g><g id="change1_1"><path d="M 453.683594 225.703125 C 453.683594 348.695312 353.976562 448.402344 230.984375 448.402344 C 107.992188 448.402344 8.285156 348.695312 8.285156 225.703125 C 8.285156 102.710938 107.992188 3.003906 230.984375 3.003906 C 353.976562 3.003906 453.683594 102.710938 453.683594 225.703125" fill="#5f6cbd"/></g><g id="change2_1"><path d="M 378.566406 58.945312 C 364.628906 69.488281 351.28125 84.601562 348.121094 104.941406 C 348.121094 104.941406 348.570312 129.128906 324.832031 138.085938 C 324.832031 138.085938 265.265625 180.632812 318.5625 211.085938 C 318.5625 211.085938 357.078125 234.378906 403.210938 229.898438 C 403.210938 229.898438 435.457031 239.75 367.828125 266.621094 C 367.828125 266.621094 300.199219 284.089844 309.15625 317.679688 C 309.15625 317.679688 318.5625 329.324219 312.742188 349.03125 C 312.742188 349.03125 303.082031 392.179688 365.457031 403.21875 C 419.058594 362.550781 453.683594 298.171875 453.683594 225.703125 C 453.683594 159.324219 424.632812 99.742188 378.566406 58.945312 Z M 243.320312 131.8125 C 243.320312 131.8125 271.761719 166.523438 250.710938 182.199219 C 250.710938 182.199219 235.929688 185.335938 234.8125 199.890625 C 234.8125 199.890625 232.570312 222.507812 188.679688 215.789062 C 188.679688 215.789062 153.074219 208.847656 142.996094 234.378906 C 142.996094 234.378906 127.324219 275.578125 162.03125 269.308594 C 162.03125 269.308594 212.195312 253.1875 233.242188 297.078125 C 233.242188 297.078125 263.25 340.296875 229.660156 366.496094 C 229.660156 366.496094 195.023438 396.960938 239.222656 448.234375 C 236.488281 448.332031 233.742188 448.402344 230.984375 448.402344 C 162.359375 448.402344 100.992188 417.351562 60.140625 368.542969 C 57.929688 355.589844 58.667969 342.152344 68.203125 335.148438 C 68.203125 335.148438 105.824219 310.515625 82.089844 296.628906 C 82.089844 296.628906 69.101562 287.226562 42.226562 297.972656 C 42.226562 297.972656 32.875 300.332031 20.320312 298.078125 C 12.527344 275.386719 8.285156 251.039062 8.285156 225.703125 C 8.285156 132.976562 64.960938 53.496094 145.558594 19.988281 C 150.660156 22.222656 155.804688 25.246094 160.914062 29.253906 C 160.914062 29.253906 169.644531 35.96875 200.101562 37.3125 C 200.101562 37.3125 236.601562 38.433594 232.796875 75.828125 C 232.796875 75.828125 220.925781 111.210938 243.320312 131.8125" fill="#b7bc1a"/></g><g id="change3_1"><path d="M 334.503906 208.691406 L 318.222656 224.972656 C 317.050781 226.144531 317.050781 228.042969 318.222656 229.214844 C 318.808594 229.800781 319.574219 230.09375 320.34375 230.09375 C 321.109375 230.09375 321.878906 229.800781 322.464844 229.214844 L 338.746094 212.933594 C 339.917969 211.761719 339.917969 209.863281 338.746094 208.691406 C 337.574219 207.519531 335.675781 207.519531 334.503906 208.691406 Z M 363.363281 208.691406 C 362.191406 207.519531 360.292969 207.519531 359.121094 208.691406 L 342.839844 224.972656 C 341.667969 226.144531 341.667969 228.042969 342.839844 229.214844 C 343.425781 229.800781 344.191406 230.09375 344.960938 230.09375 C 345.726562 230.09375 346.496094 229.800781 347.082031 229.214844 L 363.363281 212.933594 C 364.535156 211.761719 364.535156 209.863281 363.363281 208.691406 Z M 114.886719 208.691406 L 98.605469 224.972656 C 97.433594 226.144531 97.433594 228.042969 98.605469 229.214844 C 99.191406 229.800781 99.960938 230.09375 100.726562 230.09375 C 101.496094 230.09375 102.261719 229.800781 102.847656 229.214844 L 119.128906 212.933594 C 120.300781 211.761719 120.300781 209.863281 119.128906 208.691406 C 117.957031 207.519531 116.058594 207.519531 114.886719 208.691406 Z M 143.746094 208.691406 C 144.917969 209.863281 144.917969 211.761719 143.746094 212.933594 L 127.464844 229.214844 C 126.878906 229.800781 126.113281 230.09375 125.34375 230.09375 C 124.578125 230.09375 123.808594 229.800781 123.222656 229.214844 C 122.050781 228.042969 122.050781 226.144531 123.222656 224.972656 L 139.503906 208.691406 C 140.675781 207.519531 142.574219 207.519531 143.746094 208.691406" fill="#e0273e"/></g><g id="change4_1"><path d="M 422.765625 179.917969 C 422.382812 178.304688 420.753906 177.316406 419.152344 177.695312 C 417.539062 178.082031 416.546875 179.699219 416.929688 181.308594 C 420.382812 195.773438 422.132812 210.710938 422.132812 225.703125 C 422.132812 246 418.953125 265.992188 412.679688 285.128906 C 412.164062 286.703125 413.019531 288.398438 414.59375 288.914062 C 414.90625 289.015625 415.21875 289.0625 415.53125 289.0625 C 416.792969 289.0625 417.964844 288.261719 418.378906 286.996094 C 424.851562 267.257812 428.132812 246.636719 428.132812 225.703125 C 428.132812 210.242188 426.328125 194.835938 422.765625 179.917969 Z M 390.203125 336.730469 C 388.859375 335.757812 386.984375 336.0625 386.015625 337.40625 C 372.078125 356.6875 354.910156 373.042969 334.988281 386.015625 C 333.601562 386.917969 333.207031 388.777344 334.113281 390.164062 C 334.6875 391.046875 335.648438 391.527344 336.628906 391.527344 C 337.191406 391.527344 337.757812 391.371094 338.261719 391.042969 C 358.804688 377.667969 376.507812 360.804688 390.878906 340.917969 C 391.847656 339.574219 391.546875 337.699219 390.203125 336.730469 Z M 413.507812 151.175781 C 399.605469 117.25 376.515625 87.863281 346.734375 66.195312 C 345.390625 65.21875 343.515625 65.515625 342.542969 66.855469 C 341.566406 68.195312 341.863281 70.070312 343.203125 71.046875 C 372.085938 92.0625 394.476562 120.554688 407.953125 153.449219 C 408.429688 154.609375 409.550781 155.3125 410.730469 155.3125 C 411.109375 155.3125 411.496094 155.242188 411.867188 155.089844 C 413.402344 154.460938 414.136719 152.707031 413.507812 151.175781 Z M 35.199219 225.703125 C 35.199219 343.96875 127.394531 440.6875 243.832031 447.945312 C 239.183594 448.234375 234.496094 448.402344 229.769531 448.402344 C 106.777344 448.402344 7.074219 348.695312 7.074219 225.703125 C 7.074219 102.710938 106.777344 3.003906 229.769531 3.003906 C 234.496094 3.003906 239.183594 3.167969 243.832031 3.457031 C 127.394531 10.714844 35.199219 107.433594 35.199219 225.703125" fill="#fff"/></g><g clip-path="url(#a)" id="change5_1"><path d="M 455.039062 247.585938 C 454.15625 246.183594 452.304688 245.761719 450.902344 246.644531 C 449.5 247.527344 449.078125 249.378906 449.960938 250.78125 C 450.074219 250.960938 461.15625 268.953125 451.714844 286.683594 C 443.402344 302.292969 416.90625 321.398438 337.960938 323.914062 L 308 311.472656 C 306.472656 310.839844 304.714844 311.5625 304.082031 313.09375 C 303.445312 314.625 304.171875 316.378906 305.699219 317.015625 L 322.515625 323.996094 L 306.078125 324.066406 C 304.421875 324.074219 303.082031 325.425781 303.089844 327.082031 C 303.097656 328.734375 304.4375 330.066406 306.089844 330.066406 C 306.09375 330.066406 306.097656 330.066406 306.101562 330.066406 L 323.324219 329.996094 L 305.738281 337.921875 C 304.226562 338.605469 303.554688 340.378906 304.234375 341.890625 C 304.734375 343 305.828125 343.660156 306.972656 343.660156 C 307.382812 343.660156 307.800781 343.574219 308.203125 343.394531 L 338.109375 329.910156 C 403.835938 327.824219 443.84375 314.230469 457.007812 289.503906 C 468.070312 268.738281 455.578125 248.441406 455.039062 247.585938 Z M 146.320312 155.3125 C 146.863281 155.3125 147.410156 155.167969 147.902344 154.859375 L 177.664062 136.339844 C 179.070312 135.464844 179.503906 133.617188 178.628906 132.210938 C 177.75 130.800781 175.902344 130.367188 174.496094 131.246094 L 144.734375 149.765625 C 143.324219 150.640625 142.894531 152.488281 143.769531 153.898438 C 144.339844 154.808594 145.316406 155.3125 146.320312 155.3125 Z M 314.066406 154.859375 C 314.558594 155.167969 315.105469 155.3125 315.648438 155.3125 C 316.648438 155.3125 317.628906 154.808594 318.195312 153.898438 C 319.074219 152.488281 318.640625 150.640625 317.234375 149.765625 L 287.472656 131.246094 C 286.066406 130.371094 284.214844 130.800781 283.339844 132.210938 C 282.464844 133.617188 282.898438 135.464844 284.304688 136.339844 Z M 138.675781 192.746094 C 138.675781 194.402344 140.019531 195.746094 141.675781 195.746094 L 179.796875 195.746094 C 181.089844 195.746094 182.234375 194.921875 182.644531 193.695312 C 183.050781 192.46875 182.628906 191.117188 181.59375 190.34375 L 149.171875 166.078125 C 147.847656 165.085938 145.96875 165.355469 144.972656 166.683594 C 143.980469 168.011719 144.25 169.890625 145.578125 170.882812 L 170.78125 189.746094 L 141.675781 189.746094 C 140.019531 189.746094 138.675781 191.089844 138.675781 192.746094 Z M 276.246094 193.695312 C 276.652344 194.921875 277.800781 195.746094 279.09375 195.746094 L 317.214844 195.746094 C 318.871094 195.746094 320.214844 194.402344 320.214844 192.746094 C 320.214844 191.089844 318.871094 189.746094 317.214844 189.746094 L 288.105469 189.746094 L 313.3125 170.882812 C 314.636719 169.890625 314.90625 168.011719 313.914062 166.683594 C 312.921875 165.355469 311.039062 165.085938 309.714844 166.078125 L 277.292969 190.34375 C 276.261719 191.117188 275.835938 192.46875 276.246094 193.695312 Z M 267.035156 213.40625 C 268.46875 212.578125 268.960938 210.742188 268.128906 209.308594 C 267.296875 207.875 265.460938 207.382812 264.027344 208.214844 C 257.757812 211.851562 253.601562 218.242188 252.738281 225.324219 C 246.835938 222.296875 240.304688 220.707031 233.574219 220.707031 C 226.84375 220.707031 220.3125 222.296875 214.40625 225.324219 C 213.546875 218.246094 209.390625 211.851562 203.117188 208.214844 C 201.683594 207.386719 199.847656 207.875 199.019531 209.308594 C 198.1875 210.742188 198.675781 212.578125 200.109375 213.40625 C 205.335938 216.433594 208.582031 222.050781 208.582031 228.058594 C 208.582031 234.070312 205.335938 239.683594 200.109375 242.710938 C 198.675781 243.539062 198.1875 245.378906 199.019531 246.808594 C 199.574219 247.769531 200.582031 248.308594 201.617188 248.308594 C 202.128906 248.308594 202.644531 248.175781 203.117188 247.902344 C 208.910156 244.546875 212.902344 238.835938 214.15625 232.40625 C 219.953125 228.6875 226.636719 226.707031 233.574219 226.707031 C 240.511719 226.707031 247.191406 228.6875 252.988281 232.40625 C 254.246094 238.835938 258.234375 244.546875 264.027344 247.902344 C 264.503906 248.175781 265.019531 248.308594 265.53125 248.308594 C 266.566406 248.308594 267.574219 247.769531 268.128906 246.808594 C 268.960938 245.378906 268.46875 243.539062 267.035156 242.710938 C 261.8125 239.683594 258.566406 234.070312 258.566406 228.058594 C 258.566406 222.050781 261.8125 216.433594 267.035156 213.40625 Z M 433.792969 317.878906 C 432.296875 317.171875 430.507812 317.8125 429.800781 319.308594 C 421.074219 337.808594 409.789062 355.015625 396.261719 370.449219 C 395.171875 371.695312 395.292969 373.589844 396.539062 374.683594 C 397.109375 375.183594 397.816406 375.425781 398.515625 375.425781 C 399.351562 375.425781 400.179688 375.082031 400.773438 374.40625 C 414.671875 358.550781 426.261719 340.875 435.226562 321.871094 C 435.933594 320.371094 435.292969 318.585938 433.792969 317.878906 Z M 16.136719 295.15625 C 12.425781 283.644531 9.636719 271.804688 7.824219 259.722656 C 5.746094 266.671875 4.550781 276.777344 9.882812 286.742188 C 11.34375 289.476562 13.371094 292.316406 16.136719 295.15625 Z M 379.660156 391.53125 C 380.75 392.78125 380.621094 394.675781 379.375 395.765625 C 338.292969 431.640625 285.59375 451.398438 230.984375 451.398438 C 170.699219 451.398438 114.019531 427.921875 71.390625 385.292969 C 48.582031 362.484375 31.261719 335.648438 20.082031 306.394531 C 13.140625 301.507812 7.949219 295.878906 4.554688 289.503906 C -5.960938 269.757812 4.8125 250.449219 6.355469 247.863281 C 5.648438 240.546875 5.285156 233.152344 5.285156 225.703125 C 5.285156 165.414062 28.761719 108.738281 71.390625 66.109375 C 114.019531 23.480469 170.699219 0.00390625 230.984375 0.00390625 C 295.078125 0.00390625 356.378906 27.40625 399.167969 75.1875 C 400.273438 76.421875 400.167969 78.316406 398.933594 79.421875 C 397.703125 80.527344 395.804688 80.421875 394.699219 79.1875 C 353.046875 32.675781 293.375 6.003906 230.984375 6.003906 C 109.84375 6.003906 11.285156 104.558594 11.285156 225.703125 C 11.285156 252.699219 16.191406 278.570312 25.140625 302.484375 C 41.222656 313.050781 70.585938 322.222656 123.605469 323.914062 L 153.5625 311.472656 C 155.09375 310.839844 156.851562 311.5625 157.484375 313.09375 C 158.121094 314.625 157.394531 316.378906 155.863281 317.015625 L 139.046875 323.996094 L 155.488281 324.066406 C 157.144531 324.074219 158.480469 325.425781 158.476562 327.082031 C 158.46875 328.734375 157.125 330.066406 155.476562 330.066406 C 155.46875 330.066406 155.464844 330.066406 155.460938 330.066406 L 138.242188 329.996094 L 155.828125 337.921875 C 157.339844 338.605469 158.011719 340.378906 157.332031 341.890625 C 156.832031 343 155.738281 343.660156 154.59375 343.660156 C 154.183594 343.660156 153.765625 343.574219 153.363281 343.394531 L 123.457031 329.910156 C 81.144531 328.566406 49.503906 322.449219 28.808594 311.667969 C 62.335938 390.210938 140.332031 445.398438 230.984375 445.398438 C 284.140625 445.398438 335.4375 426.167969 375.425781 391.246094 C 376.675781 390.160156 378.570312 390.285156 379.660156 391.53125 Z M 412.527344 101.933594 C 411.59375 100.5625 411.945312 98.695312 413.3125 97.761719 C 414.679688 96.828125 416.550781 97.179688 417.484375 98.546875 C 443.128906 136.089844 456.683594 180.058594 456.683594 225.703125 C 456.683594 228.035156 456.648438 230.390625 456.578125 232.707031 C 456.527344 234.332031 455.195312 235.617188 453.578125 235.617188 C 453.546875 235.617188 453.515625 235.617188 453.484375 235.613281 C 451.828125 235.5625 450.527344 234.179688 450.578125 232.523438 C 450.648438 230.269531 450.683594 227.972656 450.683594 225.703125 C 450.683594 181.273438 437.488281 138.472656 412.527344 101.933594" fill="#35142b"/></g></g></svg>