<?xml version="1.0" encoding="UTF-8"?><svg xmlns="http://www.w3.org/2000/svg" xmlns:xlink="http://www.w3.org/1999/xlink" height="481.4" preserveAspectRatio="xMidYMid meet" version="1.0" viewBox="-6.1 0.0 502.9 481.4" width="502.9" zoomAndPan="magnify"><g><g id="change1_1"><path d="M 482.855469 240.683594 C 482.855469 371.832031 376.539062 478.148438 245.390625 478.148438 C 114.242188 478.148438 7.925781 371.832031 7.925781 240.683594 C 7.925781 109.539062 114.242188 3.222656 245.390625 3.222656 C 376.539062 3.222656 482.855469 109.539062 482.855469 240.683594" fill="#4e77c4"/></g><g id="change2_1"><path d="M 191.199219 393.414062 C 148.402344 361.777344 95.957031 376.542969 69.679688 400.417969 C 111.226562 446.09375 170.347656 475.488281 236.351562 477.960938 C 234.460938 447.035156 217.820312 413.085938 191.199219 393.414062 Z M 432.761719 94.800781 C 396.617188 110.558594 362.59375 156.152344 366.589844 237.074219 C 367.832031 262.25 372.007812 282.5625 322.574219 298.164062 C 255.089844 319.460938 279.53125 413.324219 308.9375 469.539062 C 409.226562 441.75 482.855469 349.820312 482.855469 240.683594 C 482.855469 185.683594 464.152344 135.058594 432.761719 94.800781 Z M 260.347656 3.703125 C 267.289062 25.1875 268.257812 47.136719 261.890625 63.875 C 235.535156 133.128906 140.453125 116.078125 185.757812 170.421875 C 202.144531 190.078125 253.246094 214.660156 228.214844 254.179688 C 201.867188 295.773438 127.617188 263.308594 107.464844 296.925781 C 93.757812 319.777344 96.742188 362.007812 44.476562 367.296875 C 21.332031 330.648438 7.925781 287.234375 7.925781 240.683594 C 7.925781 109.539062 114.242188 3.222656 245.390625 3.222656 C 250.417969 3.222656 255.402344 3.394531 260.347656 3.703125" fill="#abdc53"/></g><g id="change3_1"><path d="M 482.3125 283.285156 C 479.886719 296.875 476.304688 310.191406 471.59375 323.117188 C 475.570312 319.453125 478.332031 315.757812 480.210938 312.226562 C 485.933594 301.480469 484.566406 290.652344 482.3125 283.285156 Z M 485.894531 315.253906 C 481.898438 322.761719 475.566406 329.304688 466.949219 334.875 C 460.730469 349.480469 453.042969 363.515625 443.921875 376.792969 C 443.300781 377.703125 442.289062 378.191406 441.265625 378.191406 C 440.636719 378.191406 440.003906 378.007812 439.445312 377.625 C 437.980469 376.617188 437.609375 374.613281 438.613281 373.144531 C 445.859375 362.601562 452.171875 351.558594 457.542969 340.128906 C 435.5 350.816406 402.671875 356.894531 359.332031 358.269531 L 327.507812 372.617188 C 327.078125 372.8125 326.628906 372.902344 326.1875 372.902344 C 324.957031 372.902344 323.785156 372.199219 323.246094 371.007812 C 322.515625 369.386719 323.238281 367.476562 324.859375 366.746094 L 343.460938 358.359375 L 325.261719 358.4375 C 325.257812 358.4375 325.253906 358.4375 325.246094 358.4375 C 323.476562 358.4375 322.035156 357.007812 322.027344 355.234375 C 322.019531 353.453125 323.457031 352.007812 325.234375 352 L 342.597656 351.925781 L 324.824219 344.546875 C 323.179688 343.863281 322.402344 341.980469 323.085938 340.335938 C 323.765625 338.695312 325.652344 337.917969 327.292969 338.597656 L 359.171875 351.835938 C 413.386719 350.105469 444.355469 341.027344 461.875 330.34375 C 473.570312 302.140625 479.636719 271.792969 479.636719 240.683594 C 479.636719 228.335938 478.667969 215.933594 476.753906 203.832031 C 476.476562 202.078125 477.675781 200.429688 479.433594 200.148438 C 481.1875 199.878906 482.839844 201.070312 483.117188 202.828125 C 485.082031 215.261719 486.078125 227.996094 486.078125 240.683594 C 486.078125 250.957031 485.425781 261.144531 484.152344 271.203125 C 486.296875 274.902344 496.757812 294.855469 485.894531 315.253906 Z M 469.195312 171.308594 C 469.621094 172.691406 470.894531 173.578125 472.269531 173.578125 C 472.585938 173.578125 472.90625 173.53125 473.222656 173.433594 C 474.921875 172.90625 475.871094 171.105469 475.347656 169.40625 C 470.0625 152.34375 462.839844 135.832031 453.871094 120.332031 C 452.980469 118.792969 451.011719 118.265625 449.472656 119.15625 C 447.933594 120.050781 447.40625 122.019531 448.296875 123.558594 C 457.023438 138.640625 464.054688 154.707031 469.195312 171.308594 Z M 19.394531 323.335938 C 14.632812 310.332031 10.972656 296.890625 8.503906 283.144531 C 6.222656 290.550781 4.792969 301.492188 10.570312 312.289062 C 12.484375 315.867188 15.304688 319.621094 19.394531 323.335938 Z M 402.921875 418.40625 C 404.085938 419.753906 403.933594 421.789062 402.589844 422.949219 C 358.945312 460.625 303.117188 481.371094 245.390625 481.371094 C 195.980469 481.371094 148.503906 466.507812 108.09375 438.390625 C 70.375 412.148438 41.535156 376.097656 24.015625 335.007812 C 15.289062 329.40625 8.882812 322.824219 4.851562 315.253906 C -6.113281 294.664062 4.652344 274.519531 6.65625 271.101562 C 5.375 261.078125 4.707031 250.925781 4.707031 240.683594 C 4.707031 176.394531 29.742188 115.953125 75.203125 70.496094 C 120.660156 25.035156 181.101562 0 245.390625 0 C 307.886719 0 367.113281 23.84375 412.15625 67.136719 C 413.4375 68.367188 413.476562 70.40625 412.246094 71.691406 C 411.015625 72.972656 408.976562 73.011719 407.691406 71.78125 C 363.855469 29.644531 306.214844 6.441406 245.390625 6.441406 C 116.230469 6.441406 11.148438 111.523438 11.148438 240.683594 C 11.148438 271.921875 17.398438 302.371094 29.066406 330.457031 C 46.617188 341.089844 77.550781 350.113281 131.574219 351.835938 L 163.453125 338.597656 C 165.097656 337.914062 166.980469 338.695312 167.664062 340.335938 C 168.347656 341.980469 167.566406 343.863281 165.925781 344.546875 L 148.152344 351.925781 L 165.511719 352 C 167.289062 352.007812 168.726562 353.453125 168.71875 355.234375 C 168.710938 357.007812 167.269531 358.4375 165.5 358.4375 C 165.492188 358.4375 165.488281 358.4375 165.484375 358.4375 L 147.285156 358.359375 L 165.886719 366.746094 C 167.507812 367.476562 168.230469 369.386719 167.5 371.007812 C 166.964844 372.199219 165.789062 372.902344 164.5625 372.902344 C 164.121094 372.902344 163.671875 372.8125 163.242188 372.617188 L 131.414062 358.269531 C 88.207031 356.898438 55.449219 350.851562 33.40625 340.226562 C 50.683594 377 77.449219 409.226562 111.769531 433.105469 C 151.097656 460.46875 197.304688 474.929688 245.390625 474.929688 C 301.574219 474.929688 355.90625 454.738281 398.378906 418.074219 C 399.726562 416.914062 401.761719 417.0625 402.921875 418.40625 Z M 305.949219 143.488281 C 309.292969 137.71875 315.492188 134.132812 322.128906 134.132812 C 328.765625 134.132812 334.964844 137.71875 338.304688 143.488281 C 338.902344 144.519531 339.984375 145.09375 341.097656 145.09375 C 341.644531 145.09375 342.199219 144.953125 342.707031 144.660156 C 344.246094 143.769531 344.769531 141.800781 343.878906 140.261719 C 339.390625 132.507812 331.054688 127.691406 322.128906 127.691406 C 313.199219 127.691406 304.867188 132.507812 300.378906 140.261719 C 299.484375 141.800781 300.007812 143.769531 301.546875 144.660156 C 303.089844 145.554688 305.058594 145.027344 305.949219 143.488281 Z M 193.011719 140.261719 C 188.519531 132.507812 180.1875 127.691406 171.261719 127.691406 C 162.332031 127.691406 154 132.507812 149.507812 140.261719 C 148.617188 141.800781 149.140625 143.769531 150.679688 144.660156 C 152.21875 145.554688 154.191406 145.027344 155.082031 143.488281 C 158.421875 137.71875 164.621094 134.132812 171.261719 134.132812 C 177.894531 134.132812 184.09375 137.71875 187.4375 143.488281 C 188.035156 144.519531 189.117188 145.09375 190.226562 145.09375 C 190.777344 145.09375 191.328125 144.953125 191.839844 144.660156 C 193.378906 143.769531 193.902344 141.800781 193.011719 140.261719 Z M 322.128906 226.585938 C 334.859375 226.585938 345.21875 216.226562 345.21875 203.492188 C 345.21875 190.757812 334.859375 180.398438 322.128906 180.398438 C 309.394531 180.398438 299.035156 190.757812 299.035156 203.492188 C 299.035156 216.226562 309.394531 226.585938 322.128906 226.585938 Z M 264.09375 240.464844 C 264.09375 250.773438 255.703125 259.164062 245.390625 259.164062 C 235.078125 259.164062 226.691406 250.773438 226.691406 240.464844 C 226.691406 238.683594 225.25 237.242188 223.46875 237.242188 C 221.691406 237.242188 220.25 238.683594 220.25 240.464844 C 220.25 254.328125 231.527344 265.605469 245.390625 265.605469 C 259.253906 265.605469 270.535156 254.328125 270.535156 240.464844 C 270.535156 238.683594 269.09375 237.242188 267.3125 237.242188 C 265.535156 237.242188 264.09375 238.683594 264.09375 240.464844 Z M 191.75 203.492188 C 191.75 216.226562 181.390625 226.585938 168.65625 226.585938 C 155.921875 226.585938 145.5625 216.226562 145.5625 203.492188 C 145.5625 190.757812 155.921875 180.398438 168.65625 180.398438 C 181.390625 180.398438 191.75 190.757812 191.75 203.492188" fill="#35142b"/></g><g id="change4_1"><path d="M 359.277344 240.195312 L 341.375 258.097656 C 340.117188 259.355469 340.117188 261.394531 341.375 262.652344 C 342.003906 263.28125 342.824219 263.597656 343.652344 263.597656 C 344.472656 263.597656 345.296875 263.28125 345.925781 262.652344 L 363.828125 244.75 C 365.089844 243.492188 365.089844 241.453125 363.828125 240.195312 C 362.574219 238.9375 360.53125 238.9375 359.277344 240.195312 Z M 386.34375 240.195312 L 368.441406 258.097656 C 367.1875 259.355469 367.1875 261.394531 368.445312 262.652344 C 369.070312 263.28125 369.898438 263.597656 370.71875 263.597656 C 371.546875 263.597656 372.367188 263.28125 372.996094 262.652344 L 390.898438 244.75 C 392.15625 243.492188 392.15625 241.453125 390.898438 240.195312 C 389.644531 238.9375 387.605469 238.9375 386.34375 240.195312 Z M 122.339844 240.195312 C 121.082031 238.9375 119.042969 238.9375 117.785156 240.195312 L 99.882812 258.097656 C 98.625 259.355469 98.625 261.394531 99.882812 262.652344 C 100.511719 263.28125 101.335938 263.597656 102.160156 263.597656 C 102.984375 263.597656 103.808594 263.28125 104.4375 262.652344 L 122.339844 244.75 C 123.597656 243.492188 123.597656 241.453125 122.339844 240.195312 Z M 149.410156 240.195312 C 150.667969 241.453125 150.667969 243.492188 149.410156 244.75 L 131.507812 262.652344 C 130.878906 263.28125 130.054688 263.597656 129.230469 263.597656 C 128.40625 263.597656 127.582031 263.28125 126.953125 262.652344 C 125.695312 261.394531 125.695312 259.355469 126.953125 258.097656 L 144.855469 240.195312 C 146.113281 238.9375 148.152344 238.9375 149.410156 240.195312" fill="#f173ac"/></g><g id="change5_1"><path d="M 342 203.492188 C 342 192.515625 333.101562 183.617188 322.128906 183.617188 C 311.152344 183.617188 302.253906 192.515625 302.253906 203.492188 C 302.253906 214.46875 311.152344 223.363281 322.128906 223.363281 C 333.101562 223.363281 342 214.46875 342 203.492188 Z M 348.441406 203.492188 C 348.441406 218 336.636719 229.804688 322.128906 229.804688 C 307.617188 229.804688 295.816406 218 295.816406 203.492188 C 295.816406 188.980469 307.617188 177.179688 322.128906 177.179688 C 336.636719 177.179688 348.441406 188.980469 348.441406 203.492188 Z M 327.472656 206.847656 C 324.519531 206.847656 322.128906 209.238281 322.128906 212.191406 C 322.128906 215.144531 324.519531 217.539062 327.472656 217.539062 C 330.425781 217.539062 332.820312 215.144531 332.820312 212.191406 C 332.820312 209.238281 330.425781 206.847656 327.472656 206.847656 Z M 418.277344 351.710938 C 416.796875 350.726562 414.800781 351.125 413.8125 352.605469 C 398.234375 375.96875 377.488281 396.296875 353.816406 411.382812 C 352.316406 412.339844 351.875 414.332031 352.832031 415.832031 C 353.445312 416.792969 354.488281 417.320312 355.550781 417.320312 C 356.144531 417.320312 356.742188 417.15625 357.277344 416.816406 C 381.699219 401.25 403.101562 380.28125 419.171875 356.175781 C 420.15625 354.699219 419.757812 352.699219 418.277344 351.710938 Z M 441.546875 169.332031 C 440.980469 167.648438 439.15625 166.738281 437.46875 167.304688 C 435.785156 167.871094 434.875 169.695312 435.441406 171.382812 C 443.671875 195.90625 447.671875 218.578125 447.671875 240.683594 C 447.671875 260.824219 444.703125 280.71875 438.855469 299.820312 C 438.335938 301.519531 439.289062 303.320312 440.992188 303.84375 C 441.304688 303.9375 441.621094 303.984375 441.933594 303.984375 C 443.3125 303.984375 444.589844 303.09375 445.011719 301.703125 C 451.050781 281.992188 454.109375 261.464844 454.109375 240.683594 C 454.109375 217.867188 450 194.53125 441.546875 169.332031 Z M 362.355469 67.894531 C 360.882812 66.894531 358.878906 67.277344 357.878906 68.75 C 356.882812 70.222656 357.265625 72.222656 358.734375 73.222656 C 387.519531 92.769531 410.414062 118.484375 424.945312 147.589844 C 425.511719 148.71875 426.648438 149.371094 427.828125 149.371094 C 428.3125 149.371094 428.804688 149.261719 429.265625 149.03125 C 430.855469 148.238281 431.503906 146.304688 430.707031 144.714844 C 415.6875 114.621094 392.050781 88.058594 362.355469 67.894531 Z M 324.730469 196.289062 C 324.730469 192.3125 321.507812 189.089844 317.53125 189.089844 C 313.554688 189.089844 310.328125 192.3125 310.328125 196.289062 C 310.328125 200.265625 313.554688 203.492188 317.53125 203.492188 C 321.507812 203.492188 324.730469 200.265625 324.730469 196.289062 Z M 171.261719 196.289062 C 171.261719 192.3125 168.035156 189.089844 164.058594 189.089844 C 160.082031 189.089844 156.855469 192.3125 156.855469 196.289062 C 156.855469 200.265625 160.082031 203.492188 164.058594 203.492188 C 168.035156 203.492188 171.261719 200.265625 171.261719 196.289062 Z M 168.65625 212.191406 C 168.65625 215.144531 171.050781 217.539062 174.003906 217.539062 C 176.953125 217.539062 179.347656 215.144531 179.347656 212.191406 C 179.347656 209.238281 176.953125 206.847656 174.003906 206.847656 C 171.050781 206.847656 168.65625 209.238281 168.65625 212.191406 Z M 168.65625 223.363281 C 179.632812 223.363281 188.527344 214.46875 188.527344 203.492188 C 188.527344 192.515625 179.632812 183.617188 168.65625 183.617188 C 157.679688 183.617188 148.78125 192.515625 148.78125 203.492188 C 148.78125 214.46875 157.679688 223.363281 168.65625 223.363281 Z M 168.65625 229.804688 C 154.148438 229.804688 142.34375 218 142.34375 203.492188 C 142.34375 188.980469 154.148438 177.179688 168.65625 177.179688 C 183.164062 177.179688 194.96875 188.980469 194.96875 203.492188 C 194.96875 218 183.164062 229.804688 168.65625 229.804688 Z M 64.933594 350.765625 C 52.703125 347.984375 42.203125 344.449219 33.394531 340.195312 C 50.671875 376.980469 77.441406 409.21875 111.769531 433.105469 C 148.238281 458.476562 190.625 472.75 234.941406 474.691406 C 160.9375 461.992188 98.636719 415.054688 64.933594 350.765625 Z M 234.949219 6.6875 C 123.066406 25.882812 37.917969 123.324219 37.917969 240.683594 C 37.917969 277.382812 46.257812 312.128906 61.121094 343.148438 C 47.242188 339.566406 36.839844 335.167969 29.0625 330.457031 C 17.398438 302.371094 11.148438 271.921875 11.148438 240.683594 C 11.148438 115.023438 110.617188 12.167969 234.949219 6.6875" fill="#fff"/></g></g></svg>