<?xml version="1.0" encoding="UTF-8"?><svg xmlns="http://www.w3.org/2000/svg" xmlns:xlink="http://www.w3.org/1999/xlink" height="472.3" preserveAspectRatio="xMidYMid meet" version="1.0" viewBox="0.0 0.0 498.5 472.3" width="498.5" zoomAndPan="magnify"><defs><clipPath id="a"><path d="M 0 0 L 498.539062 0 L 498.539062 472.339844 L 0 472.339844 Z M 0 0"/></clipPath></defs><g><g id="change1_1"><path d="M 482.183594 236.171875 C 482.183594 364.910156 377.820312 469.277344 249.078125 469.277344 C 120.339844 469.277344 15.976562 364.910156 15.976562 236.171875 C 15.976562 107.429688 120.339844 3.066406 249.078125 3.066406 C 377.820312 3.066406 482.183594 107.429688 482.183594 236.171875" fill="#2c8082"/></g><g id="change2_1"><path d="M 456.472656 129.648438 C 423.714844 155.125 381.167969 211.238281 404.144531 240.484375 C 413.648438 252.582031 428.480469 268.308594 433.074219 294.804688 C 435.546875 309.035156 449.480469 326.273438 464.273438 325.910156 C 475.804688 298.289062 482.183594 267.976562 482.183594 236.171875 C 482.183594 197.789062 472.902344 161.578125 456.472656 129.648438 Z M 382.296875 312.519531 C 340.050781 295.097656 334.992188 279.722656 329.746094 262.328125 C 312.535156 205.257812 365.472656 173.148438 389.972656 154.277344 C 436.355469 118.546875 404.703125 91 388.398438 78.304688 C 373.734375 66.886719 373.554688 53.851562 372.257812 46.222656 C 371.6875 42.859375 370.828125 39.691406 369.738281 36.6875 C 334.542969 15.351562 293.246094 3.066406 249.078125 3.066406 C 231.96875 3.066406 215.292969 4.925781 199.230469 8.429688 C 178.804688 29.699219 204.015625 62.210938 191.578125 73.972656 C 142.570312 120.324219 187.3125 148.078125 195.710938 170.808594 C 207.128906 201.710938 220.242188 204.691406 232.910156 208.597656 C 269.914062 220.015625 275.03125 244.730469 275.425781 261.738281 C 276.210938 295.984375 249.765625 308.234375 234.09375 313.699219 C 190.667969 328.84375 204.527344 359.28125 208.109375 375.699219 C 220.109375 430.648438 198.050781 423.488281 188.625 417.03125 C 132.335938 378.453125 117.625 412.203125 122.492188 428.25 C 123.015625 429.972656 123.765625 431.667969 124.707031 433.34375 C 160.703125 456.097656 203.347656 469.277344 249.078125 469.277344 C 286.933594 469.277344 322.675781 460.246094 354.28125 444.234375 C 341.433594 416.65625 381.683594 389.898438 395.722656 374.125 C 427.527344 338.382812 395.199219 317.839844 382.296875 312.519531 Z M 85.292969 332.003906 C 92.890625 346.128906 120.429688 395.019531 84.539062 401.28125 C 42.1875 359.074219 15.976562 300.6875 15.976562 236.171875 C 15.976562 185.542969 32.125 138.6875 59.542969 100.464844 C 65.800781 113.824219 66.289062 124.421875 85.292969 139.515625 C 100.203125 151.351562 143.566406 166.539062 116 209.1875 C 111.074219 216.808594 116.589844 229.65625 129.578125 242.84375 C 140.769531 254.203125 154.460938 284.515625 96.167969 297.167969 C 87.253906 299.101562 71.21875 305.832031 85.292969 332.003906" fill="#abdc53"/></g><g id="change3_1"><path d="M 228.007812 259.953125 L 270.164062 259.953125 C 264.855469 254.398438 257.378906 250.933594 249.085938 250.933594 C 240.796875 250.933594 233.316406 254.398438 228.007812 259.953125 Z M 357.488281 238.78125 L 340.449219 255.824219 C 339.25 257.019531 339.25 258.960938 340.449219 260.15625 C 341.046875 260.753906 341.828125 261.054688 342.613281 261.054688 C 343.398438 261.054688 344.179688 260.753906 344.777344 260.15625 L 361.820312 243.113281 C 363.015625 241.917969 363.015625 239.976562 361.820312 238.78125 C 360.625 237.585938 358.683594 237.585938 357.488281 238.78125 Z M 383.257812 238.78125 L 366.214844 255.824219 C 365.019531 257.019531 365.019531 258.960938 366.214844 260.15625 C 366.8125 260.753906 367.597656 261.054688 368.382812 261.054688 C 369.164062 261.054688 369.949219 260.753906 370.546875 260.15625 L 387.589844 243.113281 C 388.785156 241.917969 388.785156 239.976562 387.589844 238.78125 C 386.390625 237.585938 384.453125 237.585938 383.257812 238.78125 Z M 127.613281 238.78125 L 110.570312 255.824219 C 109.375 257.019531 109.375 258.960938 110.570312 260.15625 C 111.167969 260.753906 111.953125 261.054688 112.734375 261.054688 C 113.519531 261.054688 114.304688 260.753906 114.902344 260.15625 L 131.945312 243.113281 C 133.140625 241.917969 133.140625 239.976562 131.945312 238.78125 C 130.746094 237.585938 128.808594 237.585938 127.613281 238.78125 Z M 157.710938 238.78125 C 158.910156 239.976562 158.910156 241.917969 157.710938 243.113281 L 140.671875 260.15625 C 140.070312 260.753906 139.289062 261.054688 138.503906 261.054688 C 137.71875 261.054688 136.9375 260.753906 136.339844 260.15625 C 135.140625 258.960938 135.140625 257.019531 136.339844 255.824219 L 153.382812 238.78125 C 154.578125 237.585938 156.515625 237.585938 157.710938 238.78125" fill="#f173ac"/></g><g id="change4_1"><path d="M 372.714844 78.867188 C 405.433594 104.640625 429.003906 139.207031 440.871094 178.832031 C 441.265625 180.160156 442.484375 181.015625 443.804688 181.015625 C 444.09375 181.015625 444.390625 180.972656 444.683594 180.886719 C 446.304688 180.402344 447.226562 178.695312 446.738281 177.074219 C 434.507812 136.234375 410.21875 100.609375 376.503906 74.054688 C 375.175781 73.007812 373.246094 73.234375 372.203125 74.5625 C 371.15625 75.894531 371.382812 77.820312 372.714844 78.867188 Z M 452.925781 204.417969 C 452.664062 202.746094 451.097656 201.613281 449.425781 201.859375 C 447.753906 202.121094 446.609375 203.683594 446.867188 205.359375 C 448.441406 215.484375 449.238281 225.851562 449.238281 236.171875 C 449.238281 268.585938 441.273438 300.796875 426.210938 329.320312 C 425.421875 330.820312 425.992188 332.671875 427.488281 333.460938 C 427.945312 333.703125 428.433594 333.816406 428.914062 333.816406 C 430.015625 333.816406 431.078125 333.222656 431.628906 332.183594 C 447.15625 302.777344 455.363281 269.578125 455.363281 236.171875 C 455.363281 225.539062 454.542969 214.855469 452.925781 204.417969 Z M 415.566406 352.628906 C 414.195312 351.636719 412.28125 351.941406 411.289062 353.3125 C 378.839844 398.121094 328.972656 427.796875 274.476562 434.726562 C 272.796875 434.9375 271.609375 436.472656 271.824219 438.152344 C 272.019531 439.699219 273.339844 440.828125 274.859375 440.828125 C 274.988281 440.828125 275.117188 440.820312 275.25 440.804688 C 331.417969 433.660156 382.8125 403.082031 416.253906 356.90625 C 417.246094 355.535156 416.9375 353.621094 415.566406 352.628906 Z M 228.253906 240.132812 L 269.902344 240.132812 C 264.605469 234.722656 257.230469 231.359375 249.078125 231.359375 C 240.929688 231.359375 233.554688 234.722656 228.253906 240.132812 Z M 262.53125 468.800781 C 257.660156 469.105469 252.757812 469.277344 247.808594 469.277344 C 119.070312 469.277344 14.703125 364.910156 14.703125 236.171875 C 14.703125 107.429688 119.070312 3.066406 247.808594 3.066406 C 252.757812 3.066406 257.660156 3.238281 262.53125 3.542969 C 140.648438 11.140625 44.144531 112.378906 44.144531 236.171875 C 44.144531 359.964844 140.648438 461.203125 262.53125 468.800781" fill="#fff"/></g><g clip-path="url(#a)" id="change5_1"><path d="M 498.21875 453.113281 L 482.964844 422.609375 L 482.964844 270.367188 C 482.964844 268.675781 481.59375 267.304688 479.902344 267.304688 C 478.210938 267.304688 476.839844 268.675781 476.839844 270.367188 L 476.839844 422.609375 L 461.585938 453.113281 C 460.828125 454.628906 461.441406 456.46875 462.953125 457.226562 C 464.46875 457.980469 466.308594 457.367188 467.066406 455.855469 L 476.839844 436.308594 L 476.839844 454.484375 C 476.839844 456.179688 478.210938 457.550781 479.902344 457.550781 C 481.59375 457.550781 482.964844 456.179688 482.964844 454.484375 L 482.964844 436.308594 L 492.738281 455.855469 C 493.277344 456.929688 494.355469 457.550781 495.480469 457.550781 C 495.941406 457.550781 496.410156 457.445312 496.847656 457.226562 C 498.359375 456.46875 498.972656 454.628906 498.21875 453.113281 Z M 269.902344 240.132812 C 264.605469 234.722656 257.230469 231.359375 249.078125 231.359375 C 240.929688 231.359375 233.554688 234.722656 228.253906 240.132812 Z M 270.164062 259.953125 C 264.855469 254.398438 257.378906 250.933594 249.085938 250.933594 C 240.796875 250.933594 233.316406 254.398438 228.007812 259.953125 Z M 285.167969 260.546875 L 285.167969 261.3125 C 285.167969 264.375 282.683594 266.855469 279.625 266.855469 L 218.535156 266.855469 C 215.472656 266.855469 212.992188 264.375 212.992188 261.3125 C 212.992188 241.675781 228.359375 225.054688 247.988281 224.472656 C 268.382812 223.867188 285.167969 240.28125 285.167969 260.546875 Z M 342.144531 184.871094 C 340.945312 183.675781 339.007812 183.675781 337.8125 184.871094 L 322.125 200.558594 L 306.4375 184.871094 C 305.242188 183.675781 303.304688 183.675781 302.105469 184.871094 C 300.910156 186.066406 300.910156 188.007812 302.105469 189.203125 L 317.792969 204.890625 L 302.105469 220.574219 C 300.910156 221.769531 300.910156 223.710938 302.105469 224.90625 C 302.703125 225.507812 303.488281 225.804688 304.273438 225.804688 C 305.054688 225.804688 305.839844 225.507812 306.4375 224.90625 L 322.125 209.222656 L 337.8125 224.90625 C 338.410156 225.507812 339.195312 225.804688 339.976562 225.804688 C 340.761719 225.804688 341.546875 225.507812 342.144531 224.90625 C 343.339844 223.710938 343.339844 221.769531 342.144531 220.574219 L 326.457031 204.890625 L 342.144531 189.203125 C 343.339844 188.007812 343.339844 186.066406 342.144531 184.871094 Z M 194.984375 184.871094 C 193.789062 183.675781 191.851562 183.675781 190.652344 184.871094 L 174.96875 200.558594 L 159.28125 184.871094 C 158.085938 183.675781 156.144531 183.675781 154.949219 184.871094 C 153.753906 186.066406 153.753906 188.007812 154.949219 189.203125 L 170.636719 204.890625 L 154.949219 220.574219 C 153.753906 221.769531 153.753906 223.710938 154.949219 224.90625 C 155.546875 225.507812 156.332031 225.804688 157.113281 225.804688 C 157.898438 225.804688 158.683594 225.507812 159.28125 224.90625 L 174.96875 209.222656 L 190.652344 224.90625 C 191.253906 225.507812 192.035156 225.804688 192.820312 225.804688 C 193.601562 225.804688 194.386719 225.507812 194.984375 224.90625 C 196.183594 223.710938 196.183594 221.769531 194.984375 220.574219 L 179.300781 204.890625 L 194.984375 189.203125 C 196.183594 188.007812 196.183594 186.066406 194.984375 184.871094 Z M 199.628906 145.183594 C 199.628906 143.492188 198.257812 142.121094 196.566406 142.121094 L 160.460938 142.121094 C 158.765625 142.121094 157.394531 143.492188 157.394531 145.183594 C 157.394531 146.878906 158.765625 148.25 160.460938 148.25 L 196.566406 148.25 C 198.257812 148.25 199.628906 146.878906 199.628906 145.183594 Z M 340.179688 142.121094 L 304.070312 142.121094 C 302.382812 142.121094 301.011719 143.492188 301.011719 145.183594 C 301.011719 146.878906 302.382812 148.25 304.070312 148.25 L 340.179688 148.25 C 341.871094 148.25 343.242188 146.878906 343.242188 145.183594 C 343.242188 143.492188 341.871094 142.121094 340.179688 142.121094 Z M 468.5625 314.933594 C 466.980469 314.339844 465.214844 315.144531 464.621094 316.730469 C 442.683594 375.398438 397.042969 423.175781 339.394531 447.804688 C 337.839844 448.472656 337.117188 450.273438 337.78125 451.828125 C 338.28125 452.992188 339.410156 453.6875 340.601562 453.6875 C 341.003906 453.6875 341.410156 453.609375 341.804688 453.441406 C 400.980469 428.152344 447.839844 379.105469 470.359375 318.878906 C 470.953125 317.292969 470.148438 315.527344 468.5625 314.933594 Z M 315.25 456.554688 C 293.878906 462.964844 271.613281 466.214844 249.078125 466.214844 C 134.148438 466.214844 38.632812 381.488281 21.703125 271.21875 L 21.703125 270.367188 C 21.703125 269.894531 21.589844 269.453125 21.398438 269.054688 C 19.855469 258.3125 19.039062 247.335938 19.039062 236.171875 C 19.039062 109.328125 122.234375 6.132812 249.078125 6.132812 C 315.867188 6.132812 379.269531 35.109375 423.035156 85.636719 C 424.140625 86.917969 426.078125 87.054688 427.355469 85.949219 C 428.636719 84.839844 428.773438 82.90625 427.664062 81.628906 C 382.738281 29.753906 317.644531 0.00390625 249.078125 0.00390625 C 185.996094 0.00390625 126.6875 24.570312 82.082031 69.175781 C 37.476562 113.78125 12.910156 173.089844 12.910156 236.171875 C 12.910156 248.222656 13.816406 260.136719 15.578125 271.835938 L 15.578125 422.609375 L 0.324219 453.113281 C -0.433594 454.628906 0.179688 456.46875 1.695312 457.226562 C 3.207031 457.980469 5.046875 457.367188 5.804688 455.855469 L 15.578125 436.308594 L 15.578125 454.484375 C 15.578125 456.179688 16.949219 457.550781 18.640625 457.550781 C 20.332031 457.550781 21.703125 456.179688 21.703125 454.484375 L 21.703125 436.308594 L 31.476562 455.855469 C 32.015625 456.929688 33.09375 457.550781 34.21875 457.550781 C 34.679688 457.550781 35.148438 457.445312 35.585938 457.226562 C 37.097656 456.46875 37.710938 454.628906 36.957031 453.113281 L 21.703125 422.609375 L 21.703125 300.367188 C 32.507812 338.855469 53.042969 374.128906 82.082031 403.167969 C 126.6875 447.773438 185.996094 472.339844 249.078125 472.339844 C 272.210938 472.339844 295.066406 469.003906 317.007812 462.425781 C 318.628906 461.9375 319.550781 460.230469 319.0625 458.609375 C 318.578125 456.988281 316.871094 456.070312 315.25 456.554688 Z M 446.585938 118.160156 C 445.71875 116.710938 446.1875 114.828125 447.640625 113.957031 C 449.09375 113.089844 450.972656 113.5625 451.84375 115.011719 C 473.695312 151.511719 485.25 193.40625 485.25 236.171875 C 485.25 238.777344 485.203125 241.441406 485.117188 244.085938 C 485.0625 245.742188 483.703125 247.046875 482.058594 247.046875 C 482.023438 247.046875 481.992188 247.046875 481.957031 247.046875 C 480.265625 246.992188 478.9375 245.574219 478.996094 243.886719 C 479.078125 241.304688 479.121094 238.710938 479.121094 236.171875 C 479.121094 194.515625 467.871094 153.707031 446.585938 118.160156" fill="#35142b"/></g></g></svg>