<?xml version="1.0" encoding="UTF-8"?><svg xmlns="http://www.w3.org/2000/svg" xmlns:xlink="http://www.w3.org/1999/xlink" height="3014.7" preserveAspectRatio="xMidYMid meet" version="1.0" viewBox="109.4 992.7 4781.3 3014.7" width="4781.3" zoomAndPan="magnify"><g fill-rule="evenodd"><g id="change1_1"><path d="M 4717.84375 3475.628906 C 4702.601562 3410.226562 4661.164062 3339.867188 4619.730469 3297.054688 C 4604.699219 3281.546875 4588.226562 3267.492188 4572.054688 3253.21875 C 4566.535156 3248.34375 4561.074219 3243.234375 4555.011719 3239.019531 C 4555.042969 3239.027344 4555.101562 3239.070312 4555.101562 3239.070312 C 4555.101562 3239.070312 4553.273438 3237.8125 4552.402344 3237.597656 C 4550.960938 3237.246094 4549.910156 3237.785156 4549.25 3238.496094 C 4548.621094 3239.183594 4547.992188 3240.675781 4548.769531 3242.660156 C 4549.671875 3244.90625 4553.03125 3249.359375 4553.390625 3249.878906 C 4565.875 3268.605469 4578.144531 3287.398438 4588.917969 3307.179688 C 4619.851562 3363.960938 4644.183594 3422.800781 4681.867188 3475.878906 C 4692.761719 3491.195312 4702.691406 3509.957031 4717.542969 3521.921875 C 4717.632812 3521.996094 4717.875 3522.167969 4718.171875 3522.351562 C 4717.003906 3628.234375 4702.960938 3729.527344 4684.207031 3819.335938 C 4683.820312 3816.675781 4683.457031 3814.121094 4683.128906 3811.765625 C 4675.417969 3752.199219 4652.226562 3695.628906 4617.269531 3646.917969 C 4608.027344 3634.039062 4577.964844 3592.8125 4565.242188 3584.699219 C 4564.792969 3584.398438 4563.625 3583.8125 4562.753906 3583.769531 C 4561.613281 3583.714844 4560.621094 3584.117188 4559.871094 3585.050781 C 4559.632812 3585.367188 4559.210938 3585.949219 4559.242188 3586.941406 C 4559.242188 3587.132812 4559.363281 3587.9375 4559.78125 3589.210938 C 4562.453125 3597.085938 4577.09375 3635.664062 4581.65625 3650.003906 C 4596.957031 3697.976562 4607.488281 3745.433594 4635.0625 3788.511719 C 4644.933594 3803.945312 4664.886719 3834.515625 4678.148438 3847.257812 C 4666.085938 3900.835938 4652.554688 3949.804688 4639.441406 3992.605469 C 4638.964844 3994.144531 4639.832031 3995.78125 4641.363281 3996.253906 C 4642.894531 3996.726562 4644.542969 3995.859375 4645.023438 3994.316406 C 4658.285156 3951.0625 4684.089844 3847.378906 4684.089844 3847.378906 L 4685.019531 3843.238281 C 4690.75 3817.417969 4695.941406 3791.476562 4700.5 3765.421875 C 4704.402344 3743.273438 4707.851562 3721.046875 4710.851562 3698.757812 L 4710.914062 3698.257812 C 4710.914062 3698.257812 4712.773438 3696.164062 4712.894531 3695.851562 C 4715.773438 3693.140625 4722.132812 3686.886719 4722.433594 3686.503906 C 4728.523438 3679.09375 4734.464844 3671.605469 4740.195312 3663.90625 C 4756.128906 3642.347656 4770.980469 3620.078125 4784.542969 3596.925781 C 4806.953125 3558.621094 4826.996094 3519.03125 4855.292969 3484.523438 C 4858.410156 3480.714844 4878.722656 3460.246094 4886.734375 3450.042969 C 4888.324219 3448.046875 4889.433594 3446.382812 4890.003906 3445.25 C 4890.457031 3444.308594 4890.605469 3443.519531 4890.605469 3442.964844 C 4890.636719 3441.246094 4889.765625 3440.28125 4888.414062 3439.804688 C 4887.84375 3439.597656 4887.003906 3439.519531 4886.074219 3439.707031 C 4885.175781 3439.894531 4884.09375 3440.355469 4883.945312 3440.410156 C 4873.535156 3444.472656 4863.664062 3450.738281 4854.152344 3456.496094 C 4832.039062 3469.859375 4811.367188 3485.667969 4793.933594 3504.800781 C 4774.28125 3526.386719 4760.660156 3552.074219 4749.046875 3578.660156 C 4738.785156 3602.191406 4729.574219 3626.246094 4721.59375 3650.640625 C 4719.195312 3657.90625 4716.554688 3667.597656 4713.644531 3676.765625 C 4733.867188 3508.222656 4728.945312 3316.785156 4660.085938 3135.472656 C 4659.515625 3133.96875 4657.804688 3133.207031 4656.304688 3133.777344 C 4654.804688 3134.351562 4654.023438 3136.039062 4654.625 3137.546875 C 4696.929688 3248.976562 4714.960938 3364.253906 4717.84375 3475.628906 Z M 4574.246094 3611.765625 C 4589.425781 3638.488281 4604.546875 3669.90625 4616.820312 3694.746094 C 4627.140625 3715.589844 4637.433594 3736.453125 4647.304688 3757.511719 C 4652.375 3768.390625 4657.144531 3779.40625 4661.464844 3790.605469 C 4664.316406 3797.976562 4667.015625 3805.398438 4669.71875 3812.828125 C 4672.386719 3820.269531 4675.148438 3827.726562 4677.246094 3835.351562 C 4677.308594 3835.554688 4677.578125 3836.9375 4677.90625 3838.570312 C 4665.214844 3824.410156 4648.652344 3798.917969 4639.984375 3785.363281 C 4612.710938 3742.726562 4602.359375 3695.714844 4587.234375 3648.230469 C 4584.714844 3640.351562 4579.164062 3625.171875 4574.246094 3611.765625 Z M 4575.714844 3602.671875 C 4589.277344 3618.023438 4606.078125 3641.328125 4612.53125 3650.324219 C 4646.914062 3698.253906 4669.746094 3753.90625 4677.339844 3812.519531 C 4677.636719 3814.789062 4678.027344 3817.261719 4678.417969 3819.835938 C 4677.367188 3816.832031 4676.289062 3813.839844 4675.207031 3810.851562 C 4672.507812 3803.375 4669.777344 3795.910156 4666.925781 3788.5 C 4662.546875 3777.171875 4657.746094 3766.03125 4652.585938 3755.03125 C 4642.714844 3733.9375 4632.390625 3713.039062 4622.070312 3692.15625 C 4608.777344 3665.277344 4592.15625 3630.746094 4575.714844 3602.671875 Z M 4724.59375 3674.5625 C 4726.996094 3671.167969 4729.183594 3667.984375 4730.625 3665.296875 C 4737.796875 3651.832031 4745.207031 3638.503906 4752.46875 3625.074219 C 4785.863281 3563.117188 4815.085938 3509.011719 4867.144531 3463.3125 C 4859.761719 3471.230469 4852.53125 3478.675781 4850.761719 3480.820312 C 4822.285156 3515.566406 4802.0625 3555.410156 4779.5 3593.976562 C 4766.03125 3616.945312 4751.328125 3639.042969 4735.484375 3660.429688 C 4731.945312 3665.214844 4728.285156 3669.914062 4724.59375 3674.5625 Z M 4722.675781 3667.109375 C 4724.234375 3661.789062 4725.734375 3656.714844 4727.144531 3652.460938 C 4735.066406 3628.238281 4744.214844 3604.355469 4754.417969 3580.996094 C 4765.757812 3554.996094 4779.050781 3529.84375 4798.253906 3508.738281 C 4815.324219 3490.015625 4835.546875 3474.570312 4857.152344 3461.496094 C 4860.601562 3459.410156 4864.113281 3457.246094 4867.683594 3455.152344 C 4812.324219 3502.117188 4781.992188 3557.984375 4747.308594 3622.300781 C 4740.074219 3635.742188 4732.636719 3649.074219 4725.464844 3662.550781 C 4724.714844 3663.949219 4723.753906 3665.480469 4722.675781 3667.109375 Z M 4590.265625 3297.597656 C 4610.097656 3323.546875 4630.652344 3350.933594 4641.875 3368.957031 C 4655.707031 3391.199219 4668.398438 3414.117188 4680.667969 3437.246094 C 4693.480469 3461.335938 4706.351562 3485.765625 4716.222656 3511.25 C 4716.3125 3511.503906 4716.644531 3512.472656 4717.003906 3513.675781 C 4704.851562 3502.089844 4696.152344 3485.902344 4686.640625 3472.5 C 4649.074219 3419.609375 4624.859375 3360.960938 4594.046875 3304.382812 C 4592.816406 3302.109375 4591.558594 3299.847656 4590.265625 3297.597656 Z M 4564.402344 3254.222656 C 4565.664062 3255.351562 4566.921875 3256.480469 4568.183594 3257.59375 C 4584.234375 3271.773438 4600.617188 3285.722656 4615.53125 3301.121094 C 4660.054688 3347.105469 4704.671875 3425.386719 4715.59375 3494.347656 C 4706.710938 3473.925781 4696.242188 3454.101562 4685.828125 3434.507812 C 4673.496094 3411.257812 4660.746094 3388.226562 4646.824219 3365.871094 C 4629.363281 3337.789062 4589.335938 3287.054688 4564.402344 3254.222656" fill="#fff"/></g><g id="change2_1"><path d="M 4627.328125 3003.984375 C 4613.183594 2991.425781 4590.679688 2989.183594 4572.746094 2999.988281 C 4554.84375 3010.792969 4546.3125 3031.746094 4550.792969 3050.117188 C 4534.480469 3059.6875 4525.398438 3080.40625 4530.140625 3100.789062 C 4534.886719 3121.171875 4552.152344 3135.757812 4571.042969 3137.15625 C 4575.089844 3155.628906 4591.984375 3170.675781 4612.835938 3172.46875 C 4633.691406 3174.261719 4652.898438 3162.324219 4660.042969 3144.816406 C 4678.871094 3146.660156 4698.394531 3135.246094 4706.554688 3115.96875 C 4714.710938 3096.699219 4709.300781 3074.730469 4694.867188 3062.515625 C 4702.417969 3045.179688 4697.617188 3023.078125 4681.792969 3009.371094 C 4665.972656 2995.664062 4643.410156 2994.03125 4627.328125 3003.984375" fill="#f56740"/></g><g id="change1_2"><path d="M 4600.84375 3047.035156 C 4584.644531 3056.8125 4579.414062 3077.914062 4589.1875 3094.128906 C 4598.957031 3110.34375 4620.046875 3115.574219 4636.277344 3105.796875 C 4652.480469 3096.023438 4657.707031 3074.921875 4647.9375 3058.707031 C 4638.164062 3042.492188 4617.046875 3037.265625 4600.84375 3047.035156 Z M 4605.132812 3054.167969 C 4617.417969 3046.761719 4633.390625 3050.722656 4640.820312 3063.003906 C 4648.222656 3075.285156 4644.25 3091.269531 4631.960938 3098.671875 C 4619.675781 3106.074219 4603.703125 3102.113281 4596.300781 3089.832031 C 4588.898438 3077.550781 4592.871094 3061.570312 4605.132812 3054.167969" fill="#fff"/></g><g id="change1_3"><path d="M 2491.910156 3750.363281 C 2507.128906 3684.960938 2548.574219 3614.601562 2590.019531 3571.789062 C 2605.042969 3556.28125 2621.535156 3542.230469 2637.703125 3527.953125 C 2643.222656 3523.082031 2648.660156 3517.96875 2654.71875 3513.757812 C 2654.71875 3513.761719 2654.652344 3513.804688 2654.652344 3513.804688 C 2654.652344 3513.804688 2656.484375 3512.542969 2657.332031 3512.335938 C 2658.769531 3511.980469 2659.847656 3512.519531 2660.5 3513.230469 C 2661.136719 3513.917969 2661.757812 3515.414062 2660.972656 3517.394531 C 2660.074219 3519.644531 2656.695312 3524.097656 2656.351562 3524.613281 C 2643.875 3543.339844 2631.597656 3562.132812 2620.835938 3581.914062 C 2589.90625 3638.695312 2565.574219 3697.535156 2527.886719 3750.613281 C 2516.992188 3765.933594 2507.03125 3784.691406 2492.222656 3796.65625 C 2492.125 3796.730469 2491.878906 3796.902344 2491.585938 3797.089844 C 2492.382812 3869.703125 2499.226562 3940.160156 2509.515625 4006.238281 C 2509.5625 4006.617188 2509.660156 4007.347656 2509.660156 4007.347656 L 2503.800781 4007.347656 C 2503.800781 4007.347656 2503.703125 4006.707031 2503.652344 4006.386719 C 2501.953125 3995.4375 2500.371094 3984.472656 2498.882812 3973.492188 L 2498.820312 3972.992188 C 2498.820312 3972.992188 2496.972656 3970.898438 2496.84375 3970.589844 C 2493.96875 3967.875 2487.617188 3961.621094 2487.304688 3961.238281 C 2481.230469 3953.828125 2475.269531 3946.339844 2469.554688 3938.636719 C 2453.601562 3917.082031 2438.773438 3894.8125 2425.21875 3871.660156 C 2402.800781 3833.355469 2382.730469 3793.765625 2354.464844 3759.257812 C 2351.34375 3755.453125 2331.03125 3734.984375 2323.011719 3724.777344 C 2321.429688 3722.78125 2320.300781 3721.117188 2319.746094 3719.988281 C 2319.289062 3719.042969 2319.140625 3718.257812 2319.125 3717.699219 C 2319.109375 3715.984375 2319.976562 3715.019531 2321.328125 3714.539062 C 2321.917969 3714.332031 2322.75 3714.257812 2323.664062 3714.441406 C 2324.578125 3714.628906 2325.65625 3715.089844 2325.789062 3715.144531 C 2336.207031 3719.203125 2346.085938 3725.472656 2355.605469 3731.230469 C 2377.699219 3744.59375 2398.375 3760.402344 2415.796875 3779.539062 C 2435.460938 3801.121094 2449.09375 3826.808594 2460.6875 3853.394531 C 2470.960938 3876.925781 2480.171875 3900.976562 2488.15625 3925.375 C 2490.539062 3932.636719 2493.203125 3942.332031 2496.089844 3951.5 C 2475.890625 3782.957031 2480.808594 3591.519531 2549.667969 3410.210938 C 2550.242188 3408.703125 2551.941406 3407.941406 2553.441406 3408.515625 C 2554.945312 3409.085938 2555.710938 3410.777344 2555.140625 3412.28125 C 2512.8125 3523.714844 2494.769531 3638.988281 2491.910156 3750.363281 Z M 2485.152344 3949.296875 C 2482.75 3945.902344 2480.5625 3942.71875 2479.125 3940.03125 C 2471.957031 3926.566406 2464.527344 3913.238281 2457.277344 3899.808594 C 2423.882812 3837.851562 2394.652344 3783.746094 2342.589844 3738.046875 C 2350.003906 3745.964844 2357.222656 3753.410156 2358.988281 3755.554688 C 2387.449219 3790.300781 2407.683594 3830.140625 2430.265625 3868.710938 C 2443.707031 3891.679688 2458.417969 3913.773438 2474.257812 3935.164062 C 2477.800781 3939.945312 2481.445312 3944.648438 2485.152344 3949.296875 Z M 2487.078125 3941.84375 C 2485.492188 3936.523438 2484.007812 3931.449219 2482.601562 3927.195312 C 2474.683594 3902.972656 2465.539062 3879.089844 2455.332031 3855.730469 C 2444 3829.730469 2430.707031 3804.578125 2411.488281 3783.472656 C 2394.4375 3764.75 2374.207031 3749.300781 2352.585938 3736.230469 C 2349.140625 3734.144531 2345.628906 3731.984375 2342.070312 3729.886719 C 2397.425781 3776.851562 2427.75 3832.714844 2462.417969 3897.035156 C 2469.671875 3910.472656 2477.101562 3923.808594 2484.285156 3937.28125 C 2485.035156 3938.679688 2485.984375 3940.214844 2487.078125 3941.84375 Z M 2619.480469 3572.332031 C 2599.640625 3598.28125 2579.097656 3625.667969 2567.878906 3643.695312 C 2554.03125 3665.933594 2541.359375 3688.851562 2529.078125 3711.980469 C 2516.273438 3736.070312 2503.375 3760.5 2493.527344 3785.980469 C 2493.429688 3786.238281 2493.101562 3787.207031 2492.742188 3788.410156 C 2504.894531 3776.824219 2513.597656 3760.636719 2523.117188 3747.230469 C 2560.675781 3694.34375 2584.894531 3635.699219 2615.691406 3579.117188 C 2616.933594 3576.84375 2618.191406 3574.582031 2619.480469 3572.332031 Z M 2645.347656 3528.960938 C 2644.089844 3530.085938 2642.832031 3531.214844 2641.574219 3532.332031 C 2625.523438 3546.507812 2609.144531 3560.457031 2594.21875 3575.855469 C 2549.703125 3621.839844 2505.054688 3700.121094 2494.164062 3769.082031 C 2503.03125 3748.660156 2513.5 3728.835938 2523.917969 3709.242188 C 2536.261719 3685.992188 2549 3662.960938 2562.914062 3640.605469 C 2580.386719 3612.527344 2620.410156 3561.792969 2645.347656 3528.960938" fill="#fff"/></g><g id="change2_2"><path d="M 2582.410156 3278.722656 C 2596.554688 3266.15625 2619.070312 3263.917969 2636.984375 3274.722656 C 2654.921875 3285.523438 2663.449219 3306.472656 2658.9375 3324.851562 C 2675.257812 3334.417969 2684.347656 3355.136719 2679.605469 3375.519531 C 2674.878906 3395.90625 2657.589844 3410.488281 2638.714844 3411.886719 C 2634.664062 3430.363281 2617.765625 3445.40625 2596.917969 3447.203125 C 2576.070312 3448.996094 2556.851562 3437.058594 2549.6875 3419.550781 C 2530.863281 3421.398438 2511.332031 3409.980469 2503.179688 3390.703125 C 2495.046875 3371.433594 2500.464844 3349.472656 2514.890625 3337.25 C 2507.332031 3319.910156 2512.140625 3297.808594 2527.964844 3284.109375 C 2543.773438 3270.40625 2566.335938 3268.757812 2582.410156 3278.722656" fill="#f56740"/></g><g id="change1_4"><path d="M 2608.902344 3321.773438 C 2592.683594 3311.996094 2571.59375 3317.222656 2561.8125 3333.441406 C 2552.035156 3349.660156 2557.261719 3370.75 2573.480469 3380.527344 C 2589.699219 3390.300781 2610.804688 3385.078125 2620.566406 3368.863281 C 2630.347656 3352.644531 2625.117188 3331.535156 2608.902344 3321.773438 Z M 2604.609375 3328.890625 C 2616.890625 3336.296875 2620.84375 3352.273438 2613.453125 3364.554688 C 2606.042969 3376.851562 2590.070312 3380.804688 2577.773438 3373.394531 C 2565.492188 3365.988281 2561.539062 3350.015625 2568.945312 3337.734375 C 2576.351562 3325.453125 2592.328125 3321.5 2604.609375 3328.890625" fill="#fff"/></g><g id="change1_5"><path d="M 282.167969 3475.632812 C 297.390625 3410.226562 338.832031 3339.863281 380.285156 3297.050781 C 395.300781 3281.546875 411.792969 3267.492188 427.957031 3253.222656 C 433.476562 3248.34375 438.921875 3243.234375 444.976562 3239.019531 C 444.96875 3239.03125 444.90625 3239.066406 444.90625 3239.066406 C 444.90625 3239.066406 446.738281 3237.808594 447.59375 3237.601562 C 449.035156 3237.246094 450.101562 3237.785156 450.757812 3238.496094 C 451.394531 3239.183594 452.015625 3240.683594 451.226562 3242.664062 C 450.335938 3244.90625 446.960938 3249.363281 446.613281 3249.878906 C 434.136719 3268.605469 421.863281 3287.398438 411.085938 3307.175781 C 380.164062 3363.957031 355.832031 3422.804688 318.136719 3475.886719 C 307.261719 3491.199219 297.296875 3509.957031 282.472656 3521.925781 C 282.378906 3521.996094 282.140625 3522.167969 281.835938 3522.359375 C 283.011719 3628.230469 297.035156 3729.527344 315.796875 3819.339844 C 316.171875 3816.671875 316.558594 3814.117188 316.863281 3811.769531 C 324.597656 3752.195312 347.769531 3695.628906 382.726562 3646.921875 C 391.964844 3634.035156 422.027344 3592.816406 434.746094 3584.699219 C 435.21875 3584.402344 436.367188 3583.816406 437.261719 3583.769531 C 438.398438 3583.714844 439.390625 3584.113281 440.132812 3585.054688 C 440.382812 3585.375 440.785156 3585.945312 440.769531 3586.941406 C 440.765625 3587.136719 440.632812 3587.9375 440.207031 3589.210938 C 437.5625 3597.089844 422.917969 3635.664062 418.34375 3650.011719 C 403.046875 3697.976562 392.503906 3745.4375 364.941406 3788.511719 C 355.066406 3803.949219 335.105469 3834.515625 321.859375 3847.261719 C 333.925781 3900.835938 347.453125 3949.804688 360.574219 3992.605469 C 361.046875 3994.148438 360.179688 3995.78125 358.636719 3996.253906 C 357.097656 3996.726562 355.460938 3995.859375 354.988281 3994.320312 C 341.726562 3951.0625 315.910156 3847.378906 315.910156 3847.378906 L 314.988281 3843.242188 C 309.257812 3817.417969 304.074219 3791.476562 299.492188 3765.421875 C 295.597656 3743.273438 292.144531 3721.054688 289.148438 3698.753906 L 289.082031 3698.261719 C 289.082031 3698.261719 287.230469 3696.167969 287.097656 3695.859375 C 284.226562 3693.144531 277.882812 3686.890625 277.566406 3686.5 C 271.488281 3679.089844 265.523438 3671.613281 259.820312 3663.90625 C 243.859375 3642.351562 229.023438 3620.074219 215.472656 3596.929688 C 193.054688 3558.621094 172.992188 3519.027344 144.71875 3484.519531 C 141.601562 3480.71875 121.289062 3460.253906 113.261719 3450.050781 C 111.691406 3448.042969 110.5625 3446.382812 110.011719 3445.25 C 109.550781 3444.3125 109.394531 3443.519531 109.386719 3442.972656 C 109.367188 3441.253906 110.234375 3440.28125 111.589844 3439.808594 C 112.167969 3439.605469 113.011719 3439.523438 113.917969 3439.707031 C 114.832031 3439.890625 115.910156 3440.359375 116.046875 3440.40625 C 126.464844 3444.472656 136.34375 3450.746094 145.867188 3456.496094 C 167.960938 3469.863281 188.632812 3485.667969 206.058594 3504.804688 C 225.710938 3526.382812 239.351562 3552.082031 250.953125 3578.664062 C 261.21875 3602.1875 270.429688 3626.25 278.421875 3650.644531 C 280.800781 3657.902344 283.457031 3667.59375 286.355469 3676.765625 C 266.148438 3508.230469 271.058594 3316.785156 339.929688 3135.476562 C 340.5 3133.964844 342.191406 3133.210938 343.699219 3133.78125 C 345.203125 3134.355469 345.964844 3136.039062 345.390625 3137.550781 C 303.0625 3248.984375 285.027344 3364.257812 282.167969 3475.632812 Z M 425.769531 3611.773438 C 410.578125 3638.492188 395.457031 3669.90625 383.179688 3694.746094 C 372.875 3715.589844 362.566406 3736.457031 352.707031 3757.507812 C 347.613281 3768.386719 342.863281 3779.40625 338.53125 3790.605469 C 335.679688 3797.980469 332.976562 3805.402344 330.300781 3812.835938 C 327.625 3820.269531 324.867188 3827.722656 322.753906 3835.351562 C 322.695312 3835.558594 322.417969 3836.945312 322.097656 3838.570312 C 334.792969 3824.414062 351.347656 3798.921875 360.019531 3785.359375 C 387.304688 3742.722656 397.636719 3695.722656 412.777344 3648.238281 C 415.289062 3640.359375 420.835938 3625.171875 425.769531 3611.773438 Z M 424.273438 3602.667969 C 410.730469 3618.027344 393.929688 3641.332031 387.472656 3650.320312 C 353.078125 3698.25 330.265625 3753.910156 322.65625 3812.515625 C 322.359375 3814.792969 321.972656 3817.257812 321.585938 3819.832031 C 322.640625 3816.832031 323.726562 3813.84375 324.804688 3810.855469 C 327.496094 3803.375 330.214844 3795.910156 333.082031 3788.5 C 337.464844 3777.171875 342.265625 3766.039062 347.417969 3755.035156 C 357.292969 3733.9375 367.621094 3713.039062 377.941406 3692.160156 C 391.226562 3665.28125 407.835938 3630.75 424.273438 3602.667969 Z M 275.414062 3674.566406 C 273.015625 3671.167969 270.816406 3667.980469 269.382812 3665.300781 C 262.207031 3651.832031 254.78125 3638.503906 247.539062 3625.082031 C 214.132812 3563.121094 184.914062 3509.019531 132.847656 3463.3125 C 140.257812 3471.238281 147.480469 3478.679688 149.238281 3480.820312 C 177.703125 3515.570312 197.941406 3555.414062 220.515625 3593.976562 C 233.960938 3616.949219 248.679688 3639.042969 264.515625 3660.433594 C 268.058594 3665.210938 271.703125 3669.917969 275.414062 3674.566406 Z M 277.335938 3667.113281 C 275.753906 3661.785156 274.261719 3656.710938 272.867188 3652.464844 C 264.933594 3628.242188 255.789062 3604.363281 245.597656 3581 C 234.253906 3555 220.960938 3529.851562 201.738281 3508.742188 C 184.691406 3490.019531 164.457031 3474.570312 142.84375 3461.5 C 139.390625 3459.417969 135.890625 3457.253906 132.332031 3455.15625 C 187.683594 3502.113281 218.003906 3557.980469 252.683594 3622.296875 C 259.929688 3635.742188 267.359375 3649.074219 274.539062 3662.554688 C 275.289062 3663.949219 276.246094 3665.484375 277.335938 3667.113281 Z M 409.730469 3297.601562 C 389.890625 3323.554688 369.351562 3350.9375 358.128906 3368.964844 C 344.285156 3391.203125 331.617188 3414.121094 319.332031 3437.246094 C 306.539062 3461.339844 293.636719 3485.769531 283.785156 3511.253906 C 283.6875 3511.503906 283.355469 3512.476562 283.003906 3513.679688 C 295.15625 3502.089844 303.855469 3485.90625 313.375 3472.496094 C 350.933594 3419.609375 375.144531 3360.96875 405.957031 3304.382812 C 407.195312 3302.113281 408.453125 3299.847656 409.730469 3297.601562 Z M 435.609375 3254.21875 C 434.347656 3255.351562 433.089844 3256.488281 431.828125 3257.597656 C 415.773438 3271.777344 399.390625 3285.726562 384.484375 3301.117188 C 339.953125 3347.113281 295.320312 3425.390625 284.421875 3494.347656 C 293.296875 3473.925781 303.761719 3454.101562 314.171875 3434.507812 C 326.519531 3411.257812 339.253906 3388.226562 353.171875 3365.871094 C 370.652344 3337.789062 410.664062 3287.066406 435.609375 3254.21875" fill="#fff"/></g><g id="change2_3"><path d="M 372.671875 3003.988281 C 386.816406 2991.429688 409.328125 2989.183594 427.25 2999.988281 C 445.171875 3010.785156 453.699219 3031.742188 449.199219 3050.113281 C 465.515625 3059.683594 474.605469 3080.398438 469.867188 3100.789062 C 465.132812 3121.167969 447.839844 3135.75 428.976562 3137.15625 C 424.914062 3155.625 408.023438 3170.675781 387.171875 3172.464844 C 366.324219 3174.265625 347.109375 3162.324219 339.949219 3144.816406 C 321.125 3146.65625 301.59375 3135.246094 293.445312 3115.976562 C 285.292969 3096.695312 290.710938 3074.734375 305.152344 3062.511719 C 297.578125 3045.175781 302.402344 3023.070312 318.214844 3009.367188 C 334.023438 2995.660156 356.589844 2994.03125 372.671875 3003.988281" fill="#f56740"/></g><g id="change1_6"><path d="M 399.15625 3047.046875 C 382.9375 3037.269531 361.839844 3042.492188 352.0625 3058.714844 C 342.289062 3074.933594 347.519531 3096.03125 363.734375 3105.808594 C 379.949219 3115.574219 401.050781 3110.347656 410.824219 3094.128906 C 420.597656 3077.917969 415.367188 3056.8125 399.15625 3047.046875 Z M 394.855469 3054.175781 C 407.136719 3061.566406 411.097656 3077.558594 403.695312 3089.839844 C 396.292969 3102.121094 380.3125 3106.070312 368.03125 3098.679688 C 355.75 3091.273438 351.789062 3075.292969 359.191406 3063.011719 C 366.59375 3050.730469 382.578125 3046.769531 394.855469 3054.175781" fill="#fff"/></g><g id="change2_4"><path d="M 1965.683594 3267.792969 L 1849.691406 3267.792969 L 1849.691406 4007.34375 L 2115.089844 4007.34375 C 2115.089844 4007.34375 2107.976562 3961.488281 2071.917969 3945.824219 C 2016.832031 3921.902344 1965.683594 3913.140625 1965.683594 3913.140625 L 1965.683594 3267.792969" fill="#f56740"/></g><g id="change3_1"><path d="M 3151.941406 3267.800781 L 3267.921875 3267.800781 L 3267.921875 4007.34375 L 3002.519531 4007.34375 C 3002.519531 4007.34375 3009.636719 3961.488281 3045.703125 3945.828125 C 3100.777344 3921.90625 3151.941406 3913.140625 3151.941406 3913.140625 L 3151.941406 3267.800781" fill="#6e97b6"/></g><g id="change2_5"><path d="M 1572.242188 3267.800781 L 1456.261719 3267.800781 L 1456.261719 4007.34375 L 1721.648438 4007.34375 C 1721.648438 4007.34375 1714.539062 3961.488281 1678.480469 3945.824219 C 1623.402344 3921.902344 1572.242188 3913.132812 1572.242188 3913.132812 L 1572.242188 3267.800781" fill="#f56740"/></g><g id="change3_2"><path d="M 3545.359375 3267.800781 L 3661.355469 3267.800781 L 3661.355469 4007.347656 L 3395.960938 4007.347656 C 3395.960938 4007.347656 3403.0625 3961.488281 3439.136719 3945.828125 C 3494.214844 3921.90625 3545.359375 3913.140625 3545.359375 3913.140625 L 3545.359375 3267.800781" fill="#6e97b6"/></g><g id="change2_6"><path d="M 1491.058594 1853.855469 C 1670.210938 1397.734375 2156.527344 1323.4375 2431.695312 1495.785156 C 2706.851562 1668.109375 2770.867188 2087.101562 2591.707031 2543.222656 C 2482.785156 2846.453125 2161.40625 3182.144531 1857.234375 3439.320312 C 1789.882812 3496.285156 1696.238281 3510.589844 1614.953125 3476.332031 C 1247.871094 3321.699219 840.925781 3097.269531 646.4375 2840.382812 C 339.277344 2458.546875 275.273438 2039.578125 486.429688 1792.953125 C 697.582031 1546.308594 1183.902344 1472.011719 1491.058594 1853.855469" fill="#f56740"/></g><g id="change3_3"><path d="M 3525.65625 1356.746094 C 2935.679688 1356.746094 2456.667969 1835.746094 2456.667969 2425.730469 C 2456.667969 3015.722656 2935.679688 3494.726562 3525.65625 3494.726562 C 4115.660156 3494.726562 4594.660156 3015.722656 4594.660156 2425.730469 C 4594.660156 1835.746094 4115.660156 1356.746094 3525.65625 1356.746094" fill="#6e97b6"/></g><g id="change4_1"><path d="M 3956.871094 3404.058594 C 3956.84375 3401.609375 3956.675781 3399.171875 3956.421875 3396.765625 C 3945.648438 3383.546875 3925.105469 3373.304688 3920.515625 3356.0625 C 3918.363281 3347.921875 3925.636719 3343.828125 3931.710938 3339.699219 L 3898.296875 3259.527344 C 3892.027344 3257.09375 3884.976562 3255.839844 3879.851562 3251.300781 C 3871.765625 3244.121094 3872.046875 3230.679688 3862.921875 3224.882812 C 3848.675781 3215.804688 3823.351562 3227.125 3811.933594 3212.089844 C 3804.292969 3202.0625 3819.488281 3185.828125 3824.132812 3177.546875 C 3825.785156 3174.621094 3828.75 3169.34375 3826.597656 3165.960938 C 3823.6875 3161.40625 3814.589844 3162.539062 3810.167969 3162.625 C 3796.933594 3162.894531 3780.699219 3165.4375 3769.113281 3157.207031 C 3758.480469 3149.628906 3760.71875 3134.589844 3754.449219 3124.285156 C 3747.929688 3113.527344 3735.921875 3107.457031 3728.113281 3097.746094 C 3719.859375 3087.4375 3717.171875 3074.117188 3710.035156 3063.117188 C 3699.375 3046.683594 3684.597656 3034.113281 3666.628906 3026.324219 C 3649.476562 3018.902344 3630.082031 3015.152344 3615.976562 3002.113281 C 3598.625 2986.046875 3593.585938 2961.679688 3591.9375 2939.066406 C 3591.042969 2926.402344 3591.265625 2913.222656 3598.09375 2902.1875 C 3596.050781 2897.277344 3593.585938 2892.519531 3590.566406 2887.96875 C 3580.070312 2872.167969 3565.152344 2859.859375 3553.121094 2845.277344 C 3545.5625 2836.074219 3538.316406 2825.257812 3541.085938 2812.761719 C 3546.347656 2789.117188 3581.359375 2787.527344 3599.4375 2779.503906 C 3612.367188 2773.769531 3624.457031 2766.679688 3637.804688 2761.847656 C 3652.246094 2756.632812 3667.132812 2753.644531 3681.910156 2749.6875 C 3690.503906 2747.386719 3698.980469 2743.488281 3707.714844 2741.949219 C 3715.773438 2740.535156 3723.582031 2744.042969 3731.585938 2743.820312 C 3733.40625 2734.886719 3732.0625 2725.578125 3733.769531 2716.359375 C 3735.585938 2706.730469 3741.015625 2699.019531 3747.675781 2692.050781 C 3760.074219 2679.054688 3774.347656 2671.464844 3791.726562 2667.222656 C 3803.480469 2664.355469 3817.445312 2664.058594 3828.359375 2658.597656 C 3846.523438 2649.507812 3854.804688 2627.433594 3871.347656 2615.851562 C 3887.355469 2604.65625 3906.859375 2608.816406 3924.996094 2605.847656 C 3947.074219 2602.222656 3970.164062 2586.65625 3993.082031 2588.046875 C 3999.941406 2575.441406 4019.558594 2570.402344 4032.542969 2571.542969 C 4040.238281 2572.222656 4047.542969 2575.921875 4055.378906 2574.75 C 4063.046875 2573.613281 4069.738281 2567.445312 4073.851562 2561.230469 C 4081.828125 2549.203125 4081.097656 2534.363281 4080.0625 2520.589844 C 4079.53125 2513 4077.039062 2502.40625 4081.9375 2495.667969 C 4088.824219 2486.164062 4106.089844 2486.90625 4116.332031 2484.636719 C 4122.460938 2483.28125 4128.226562 2480.914062 4130.046875 2474.308594 C 4133.824219 2460.460938 4126.296875 2443.113281 4122.238281 2430.074219 C 4121.0625 2426.285156 4117.257812 2416.894531 4122.824219 2414.5625 C 4132.285156 2410.613281 4148.039062 2420.511719 4155.457031 2425.101562 C 4176.277344 2437.988281 4202.304688 2461.949219 4228.890625 2449.660156 C 4240.671875 2444.21875 4244.367188 2432.9375 4246.996094 2420.976562 C 4246.382812 2416.40625 4245.683594 2411.976562 4245.261719 2407.964844 C 4242.882812 2385.238281 4247.976562 2360.988281 4241.847656 2338.8125 C 4239.21875 2329.308594 4234.070312 2318.769531 4224.890625 2314.074219 C 4205.578125 2304.21875 4180.363281 2317.226562 4159.570312 2312.953125 C 4149.972656 2310.976562 4142.75 2304.585938 4134.105469 2300.503906 C 4121.007812 2294.324219 4103.039062 2292.519531 4089.691406 2299.050781 C 4067.441406 2309.949219 4071.277344 2337.964844 4058.652344 2355.886719 C 4053.503906 2363.191406 4041.554688 2373.078125 4031.703125 2371.371094 C 4022.441406 2369.761719 4027.171875 2354.121094 4028.429688 2348.636719 C 4033.859375 2324.84375 4045.667969 2300.078125 4028.960938 2278.265625 C 4014.578125 2259.492188 3991.40625 2249.589844 3979.761719 2228.210938 C 3969.605469 2209.527344 3973.828125 2185.953125 3959.417969 2169.273438 C 3949.761719 2158.109375 3935.042969 2157.183594 3923.34375 2149.40625 C 3917.800781 2148.117188 3912.457031 2146.214844 3908.820312 2142.378906 C 3898.910156 2131.914062 3911.589844 2114.199219 3898.996094 2104.628906 C 3896.839844 2102.976562 3894.292969 2101.746094 3891.71875 2100.878906 C 3883.742188 2098.164062 3873.472656 2097.378906 3866.644531 2103.257812 C 3864.574219 2105.019531 3859.648438 2117.191406 3857.324219 2116.996094 C 3853.714844 2116.6875 3847.808594 2108.378906 3844.589844 2106.417969 C 3835.945312 2101.214844 3826.09375 2099.871094 3816.355469 2098.023438 C 3804.90625 2095.867188 3779.71875 2093.910156 3780.167969 2077.035156 C 3780.28125 2072.722656 3784.03125 2071.6875 3787.585938 2072.835938 C 3796.792969 2075.832031 3804.542969 2081.539062 3814.757812 2080.726562 C 3822.988281 2080.085938 3829.898438 2074.851562 3837.707031 2072.613281 C 3852.457031 2068.328125 3868.464844 2068.300781 3882.230469 2060.96875 C 3889.425781 2057.164062 3901.402344 2047.902344 3896.867188 2038.246094 C 3891.160156 2026.128906 3868.601562 2028.589844 3858.304688 2028.5625 C 3842.492188 2028.507812 3826.035156 2029.347656 3810.730469 2024.644531 C 3795.757812 2020.054688 3782.265625 2010.902344 3767.601562 2005.277344 C 3757.582031 2001.417969 3731.726562 1996.9375 3730.800781 1982.972656 C 3730.1875 1973.375 3738.023438 1966.097656 3744.234375 1959.996094 C 3759.960938 1944.660156 3779.554688 1934.277344 3795.53125 1919.25 C 3807.511719 1907.972656 3815.011719 1893.53125 3822.902344 1879.34375 C 3826.203125 1873.382812 3830.515625 1863.558594 3838.042969 1861.933594 C 3843.277344 1860.789062 3848.0625 1865.433594 3851.839844 1868.34375 C 3862 1876.207031 3873.054688 1886.085938 3885.589844 1876.375 C 3898.070312 1866.691406 3896 1851.21875 3904.144531 1839.238281 C 3908.789062 1832.382812 3916.234375 1828.324219 3923.484375 1824.742188 C 3938.566406 1817.328125 3955.050781 1811.367188 3971.394531 1807.417969 C 3980.320312 1805.265625 3990.929688 1802.71875 4000.109375 1804.902344 C 4006.152344 1806.328125 4008.054688 1810.554688 4008.335938 1816.320312 C 4009.0625 1830.925781 4009.539062 1846.152344 4009.566406 1860.789062 C 4009.59375 1872.066406 4005.144531 1881.609375 3999.6875 1891.238281 C 3995.574219 1898.457031 3989.390625 1907.75 3990.761719 1916.535156 C 3993.25 1932.292969 4018.214844 1933.355469 4018.800781 1949.585938 C 4019.304688 1962.90625 4010.097656 1975.78125 4008.867188 1989.128906 C 4008.476562 1993.496094 4008.027344 1999.933594 4011.582031 2003.320312 C 4020.957031 2012.273438 4037.496094 1991.285156 4041.273438 1984.847656 C 4047.460938 1974.214844 4047.488281 1961.089844 4053.867188 1950.679688 C 4058.820312 1936.683594 4082.972656 1930.21875 4094.53125 1927.003906 C 4131.753906 1916.621094 4184.589844 1916.144531 4200.820312 1874.304688 C 4212.128906 1845.171875 4199.394531 1815.507812 4175.550781 1796.898438 C 4162.703125 1786.851562 4146.390625 1781.226562 4134.859375 1769.472656 C 4129.738281 1764.292969 4127.191406 1756.121094 4129.207031 1749.769531 C 4123.554688 1753.742188 4118.824219 1758.976562 4115.074219 1764.882812 C 4110.929688 1771.429688 4108.019531 1780.328125 4102.144531 1785.5625 C 4094.503906 1792.363281 4078.578125 1793.816406 4069.066406 1795.636719 C 4061.425781 1797.09375 4048.496094 1799.472656 4042.140625 1793.257812 C 4036.574219 1787.773438 4045.667969 1780.777344 4049.894531 1778.480469 C 4068.03125 1768.660156 4086.246094 1759.339844 4101.808594 1745.488281 C 4104.382812 1743.21875 4107.546875 1740.5625 4108.859375 1737.289062 C 4110.761719 1732.613281 4109.421875 1727.96875 4112.105469 1723.125 C 4117.703125 1713.023438 4123.523438 1700.652344 4131.222656 1692.035156 C 4135.839844 1686.828125 4142.050781 1682.96875 4147.535156 1678.769531 C 4157.472656 1671.128906 4164.132812 1666.398438 4177.144531 1666.734375 C 4185.09375 1666.929688 4192.957031 1668.609375 4200.679688 1670.402344 C 4202.445312 1670.820312 4207.539062 1671.4375 4207.984375 1673.871094 C 4208.292969 1675.664062 4205.859375 1677.035156 4204.710938 1677.875 C 4201.605469 1680.140625 4196.175781 1683.273438 4194.917969 1687.191406 C 4194.019531 1689.964844 4198.441406 1692.203125 4200.121094 1693.515625 C 4206.277344 1698.304688 4211.902344 1705.355469 4219.207031 1708.378906 C 4228.277344 1712.070312 4234.265625 1706.195312 4242.660156 1706.335938 C 4245.121094 1706.363281 4247.445312 1708.292969 4249.769531 1709.023438 C 4253.6875 1710.226562 4257.882812 1710.5625 4261.96875 1710.53125 C 4276.132812 1710.449219 4291.242188 1704.769531 4305.265625 1707.425781 C 4311.5625 1708.628906 4317.578125 1711.148438 4323.285156 1714.3125 C 4435.675781 1840.164062 4518.738281 1992.796875 4561.667969 2161.382812 C 4560.71875 2164.710938 4559.738281 2167.820312 4558.816406 2170.703125 C 4552.015625 2191.691406 4540.261719 2211.460938 4525.148438 2227.558594 C 4515.855469 2237.453125 4504.214844 2244.949219 4495.453125 2255.339844 C 4488.570312 2263.523438 4486.667969 2274.203125 4481.125 2283.1875 C 4470.519531 2300.332031 4457.476562 2315.640625 4447.488281 2333.246094 C 4436.125 2353.234375 4424.957031 2373.40625 4409.425781 2390.550781 C 4406.039062 2394.28125 4399.101562 2403.425781 4393.195312 2403.226562 C 4389.558594 2403.101562 4393.671875 2395.964844 4394.257812 2394.921875 C 4398.570312 2387.015625 4403.859375 2379.609375 4408.894531 2372.164062 C 4424.398438 2349.265625 4441.75 2326.574219 4454.035156 2301.695312 C 4456.695312 2296.292969 4459.71875 2289.835938 4459.324219 2283.625 C 4459.101562 2280.632812 4457.589844 2276.855469 4454.007812 2277.351562 C 4448.886719 2278.054688 4445.863281 2286.042969 4443.511719 2289.75 C 4437.046875 2299.863281 4429.296875 2308.980469 4421.292969 2317.890625 C 4395.351562 2346.738281 4369.574219 2375.917969 4342.875 2404.078125 C 4341.03125 2406.023438 4339.070312 2408.101562 4337 2410.226562 C 4337.839844 2411.15625 4338.652344 2412.074219 4339.40625 2412.992188 C 4347.1875 2422.191406 4355.527344 2433.847656 4345.171875 2444.523438 C 4327.234375 2463.035156 4291.664062 2466.597656 4267.734375 2470.730469 C 4220.972656 2478.816406 4173.898438 2486.015625 4135.222656 2515.90625 C 4118.234375 2529.023438 4107.011719 2547.769531 4089.71875 2560.648438 C 4077.347656 2569.851562 4063.300781 2576.238281 4049.839844 2583.589844 C 4040.15625 2588.875 4030.554688 2594.3125 4021.011719 2599.816406 C 4038.671875 2613.988281 4053 2638.3125 4058.484375 2656.257812 C 4062.683594 2670.0625 4062.265625 2684.90625 4067.132812 2698.535156 C 4075.332031 2721.464844 4103.152344 2734.441406 4106.089844 2759.410156 C 4108.078125 2776.207031 4098.085938 2791.125 4093.664062 2806.683594 C 4090.667969 2817.246094 4089.941406 2828.28125 4086.695312 2838.792969 C 4082.695312 2851.679688 4075.195312 2863.414062 4068.617188 2875.105469 C 4061.089844 2888.550781 4055.15625 2902.414062 4043.625 2913.089844 C 4024.289062 2931.035156 3997.898438 2938.6875 3976.65625 2954.117188 C 3976.65625 2954.722656 3976.683594 2955.316406 3976.683594 2955.902344 C 3977.496094 2988.953125 3977.441406 3022.265625 3981.527344 3055.117188 C 3988.355469 3110.070312 4012.925781 3161.195312 4019.613281 3215.753906 C 4022.972656 3243.328125 4008.503906 3268.1875 4011.527344 3295.097656 C 4014.492188 3321.539062 4022.1875 3346.386719 4022.078125 3372.5625 C 4000.75 3383.769531 3979.007812 3394.285156 3956.871094 3404.058594 Z M 2765.039062 1674.878906 C 2784.8125 1659.738281 2806.40625 1645.046875 2829.605469 1636.371094 C 2838.226562 1633.152344 2851.910156 1628.703125 2859.132812 1637.320312 C 2860.277344 1638.695312 2861.175781 1640.175781 2861.875 1641.714844 L 2918.238281 1572.757812 C 2941.6875 1577.207031 2966.34375 1585.351562 2984.953125 1600.886719 C 3000.039062 1613.507812 3009.132812 1631.695312 3020.300781 1647.507812 C 3033.398438 1666.007812 3049.183594 1681.875 3066.953125 1695.894531 C 3078.707031 1705.132812 3092.28125 1713.695312 3101.039062 1726.09375 C 3112.710938 1742.605469 3112.960938 1772.410156 3097.820312 1787.242188 C 3081.113281 1803.585938 3058.082031 1777.753906 3039.640625 1785.980469 C 3035.777344 1787.71875 3033.59375 1791.746094 3031.4375 1795.132812 C 3026.066406 1803.613281 3017.304688 1815.617188 3017.753906 1826.113281 C 3017.976562 1831.710938 3020.664062 1836.75 3023.097656 1841.671875 C 3023.828125 1843.128906 3025.644531 1845.898438 3024.441406 1847.578125 C 3022.847656 1849.84375 3017.335938 1850.320312 3014.898438 1850.796875 C 3012.183594 1851.355469 3009.414062 1851.71875 3006.644531 1851.917969 C 3002.5 1852.167969 2998.332031 1851.945312 2994.300781 1850.992188 C 2973.535156 1846.09375 2970.347656 1821.496094 2959.90625 1806.242188 C 2952.828125 1795.890625 2938.527344 1785.03125 2937.855469 1771.597656 C 2937.097656 1756.175781 2952.910156 1744.589844 2948.433594 1728.414062 C 2944.964844 1715.90625 2931.558594 1706.53125 2923.164062 1697.324219 C 2918.152344 1691.808594 2913.339844 1686.101562 2909.167969 1679.917969 C 2905.699219 1674.824219 2902.789062 1667.964844 2897.976562 1663.964844 C 2890.308594 1657.527344 2876.566406 1654.8125 2864.363281 1654.617188 C 2864.839844 1662.675781 2864.476562 1671.128906 2868.617188 1677.816406 C 2873.824219 1686.15625 2883.367188 1691.140625 2890.558594 1697.546875 C 2900.914062 1706.78125 2906.230469 1718.257812 2906.089844 1732.25 C 2906.035156 1738.15625 2904.777344 1744.226562 2901.027344 1748.929688 C 2893.582031 1758.21875 2880.847656 1759.394531 2869.792969 1759.339844 C 2856.359375 1759.285156 2843.011719 1756.878906 2829.664062 1755.671875 C 2819.476562 1754.75 2809.652344 1754.023438 2799.886719 1752.398438 C 2804.867188 1757.96875 2809.765625 1763.257812 2815.082031 1766.027344 C 2829.605469 1773.585938 2848.246094 1768.828125 2862.125 1777.167969 C 2873.992188 1784.304688 2870.410156 1799.777344 2877.882812 1809.492188 C 2881.015625 1813.578125 2887.199219 1813.996094 2891.761719 1815.453125 C 2898.589844 1817.605469 2905.140625 1821.105469 2909.589844 1826.871094 C 2915.832031 1834.957031 2915.773438 1845.648438 2914.851562 1855.414062 C 2917.984375 1857.011719 2921.148438 1858.4375 2924.421875 1859.472656 C 2936.707031 1863.417969 2950.027344 1864.816406 2962.707031 1866.945312 C 2978.351562 1869.605469 2994.832031 1872.878906 3010.757812 1870.863281 C 3033.007812 1868.007812 3034.125 1851.917969 3037.679688 1833.417969 C 3038.910156 1827.121094 3042.410156 1812.875 3051.363281 1813.800781 C 3070.058594 1815.703125 3063.007812 1845.84375 3060.292969 1856.535156 C 3059.59375 1859.332031 3055.703125 1868.566406 3059.171875 1870.777344 C 3063.117188 1873.296875 3070.421875 1872.347656 3074.871094 1872.792969 C 3082.371094 1873.578125 3089.761719 1875.171875 3096.140625 1879.34375 C 3119.957031 1894.902344 3132.382812 1922.523438 3159.222656 1934.558594 C 3170.808594 1939.765625 3183.289062 1942.058594 3195.492188 1945.304688 C 3201.703125 1946.957031 3210.742188 1948.636719 3215.109375 1953.953125 C 3221.015625 1961.171875 3205.761719 1970.4375 3201.5625 1974.101562 C 3189.054688 1985.074219 3177.71875 2003.125 3189.054688 2019.214844 C 3201.59375 2036.984375 3231.675781 2033.375 3250.257812 2032.3125 C 3257.984375 2031.863281 3274.046875 2028.535156 3279.589844 2036.3125 C 3284.597656 2043.367188 3283.199219 2057.917969 3283.339844 2066.0625 C 3283.535156 2078.710938 3282.414062 2092.453125 3277.070312 2104.066406 C 3266.378906 2127.238281 3237.273438 2131.660156 3214.519531 2129.84375 C 3210.492188 2129.507812 3206.488281 2128.917969 3202.597656 2127.828125 C 3180.796875 2121.726562 3181.945312 2099.980469 3171.085938 2083.722656 C 3160.425781 2067.660156 3143.269531 2052.320312 3128.71875 2039.617188 C 3118.867188 2030.996094 3105.601562 2032.621094 3093.734375 2029.402344 C 3085.226562 2027.105469 3077.644531 2022.320312 3069.078125 2020.222656 C 3061.550781 2018.375 3053.941406 2017.171875 3046.328125 2015.773438 C 3046.355469 2016.359375 3046.382812 2016.976562 3046.382812 2017.5625 C 3046.746094 2037.769531 3034.097656 2052.519531 3017.78125 2062.535156 C 3007.035156 2069.140625 2991.726562 2075.214844 2986.492188 2087.695312 C 2980.28125 2102.613281 3002.304688 2107.257812 3011.289062 2112.546875 C 3022.121094 2118.929688 3014.589844 2125.027344 3005.355469 2127.070312 C 3002 2127.800781 2998.527344 2128.078125 2995.085938 2128.023438 C 2987.304688 2127.882812 2979.496094 2126.597656 2972.109375 2124.105469 C 2967.238281 2122.480469 2962.480469 2120.382812 2957.976562 2117.894531 C 2954.757812 2116.128906 2951.652344 2114.113281 2948.9375 2111.625 C 2927.976562 2092.507812 2959.265625 2069.535156 2972.976562 2057.5 C 2977.089844 2053.890625 2978.824219 2052.378906 2982.910156 2048.683594 C 2987.082031 2044.90625 2988.675781 2043.421875 2992.707031 2039.476562 C 2997.183594 2035.109375 3001.550781 2030.632812 3005.496094 2025.765625 C 3011.457031 2018.402344 3015.292969 2010.847656 3015.234375 2003.628906 L 3010.589844 2001.25 C 2996.511719 2021.59375 2970.402344 2029.792969 2952.519531 2046.472656 C 2941.242188 2057.023438 2935.921875 2072.082031 2927.695312 2084.8125 C 2922.855469 2092.3125 2916.976562 2099.675781 2907.628906 2100.988281 C 2905.449219 2101.296875 2903.265625 2101.269531 2901.109375 2100.90625 C 2887.425781 2098.554688 2896.6875 2089.261719 2892.742188 2080.417969 C 2889.71875 2073.621094 2881.015625 2071.015625 2874.269531 2070.203125 C 2864.28125 2069 2854.542969 2070.738281 2844.96875 2073.453125 C 2845.167969 2073.730469 2845.363281 2074.039062 2845.53125 2074.320312 C 2848.246094 2078.910156 2848.382812 2084.394531 2848.078125 2089.542969 C 2847.125 2105.269531 2840.015625 2118.5625 2825.183594 2125.167969 C 2804.363281 2134.402344 2783.21875 2129.449219 2762.167969 2124.609375 C 2752.992188 2122.511719 2740.910156 2120.550781 2733.980469 2128.695312 C 2727.898438 2135.859375 2728.859375 2146.941406 2731.3125 2155.308594 C 2736.492188 2172.996094 2750.125 2187.492188 2761.457031 2201.484375 C 2764.742188 2205.542969 2768.25 2209.558594 2771.226562 2213.878906 C 2785.84375 2207.140625 2809.261719 2212.261719 2823.671875 2210.839844 C 2852.863281 2207.953125 2879.980469 2194.628906 2908.863281 2192 C 2929.683594 2190.097656 2949.554688 2196.925781 2970.625 2192.894531 C 2992.789062 2188.640625 3011.09375 2177.390625 3026.457031 2161.101562 C 3037.371094 2149.574219 3045.375 2129.199219 3062.839844 2126.875 C 3095.75 2122.480469 3132.941406 2131.074219 3165.742188 2133.929688 C 3192.1875 2136.25 3225.492188 2135.242188 3248.496094 2150.746094 C 3269.878906 2165.132812 3269.90625 2194.097656 3283.199219 2214.316406 C 3298.898438 2238.199219 3325.960938 2252.160156 3341.632812 2276.589844 C 3356.800781 2300.25 3355.90625 2330.382812 3357.417969 2357.46875 C 3358.507812 2377.203125 3361.054688 2397.007812 3359.515625 2416.789062 C 3358.339844 2432.050781 3354.589844 2446.777344 3347.984375 2460.609375 C 3292.125 2577.433594 3138.734375 2465.628906 3059.535156 2539.492188 C 3047.726562 2550.519531 3053.519531 2567.347656 3054.890625 2581.164062 C 3056.261719 2595.074219 3055.058594 2608.75 3051 2622.148438 C 3041.261719 2654.441406 3015.292969 2680.746094 3011.792969 2715.175781 C 3008.351562 2749.179688 3026.570312 2778.84375 3027.351562 2811.964844 C 3027.96875 2837.546875 3014.507812 2862.464844 3005.214844 2885.597656 C 2984.421875 2937.375 2970.820312 2990.816406 2926.242188 3028.101562 C 2912.863281 3039.3125 2894.980469 3053.109375 2876.511719 3052.964844 C 2858.824219 3052.832031 2843.375 3038.640625 2831.339844 3027.214844 C 2810.324219 3007.25 2796.355469 2982.347656 2777.976562 2960.261719 C 2763.824219 2943.25 2743.464844 2927.382812 2737.886719 2905.007812 C 2731.464844 2879.265625 2745.148438 2849.761719 2733.636719 2825.167969 C 2720.066406 2796.171875 2668.875 2805.035156 2664.421875 2768.203125 C 2658.640625 2720.40625 2701.78125 2682.953125 2673.414062 2634.898438 C 2644.5625 2586.019531 2594.191406 2553.46875 2565.0625 2505.066406 C 2561.683594 2499.453125 2542.230469 2465.671875 2547.078125 2459.484375 C 2550.171875 2455.539062 2570.164062 2464.207031 2573.90625 2465.042969 C 2592.425781 2469.1875 2610.863281 2470.273438 2629.457031 2469.773438 C 2631.398438 2466.652344 2633.3125 2463.617188 2634.980469 2460.714844 C 2646.320312 2440.957031 2660.75 2426.507812 2677.480469 2412.925781 L 2700.363281 2359.570312 C 2717.699219 2330.710938 2732.644531 2300.679688 2743.816406 2268.886719 C 2747.195312 2259.273438 2750.285156 2244.003906 2755.835938 2231.792969 C 2744.828125 2237.339844 2735.09375 2248.277344 2728.808594 2256.089844 C 2697.78125 2294.65625 2673.03125 2334.664062 2657.914062 2381.832031 C 2656.558594 2386.054688 2655.511719 2389.097656 2653.921875 2393.222656 C 2648.445312 2407.464844 2636.710938 2439.347656 2616.597656 2437.085938 C 2591.058594 2434.214844 2571.890625 2411.652344 2550.875 2399.3125 C 2521.332031 2381.964844 2482.082031 2389.730469 2460.324219 2357.914062 C 2459.832031 2357.195312 2459.371094 2356.472656 2458.925781 2355.742188 C 2461.105469 2322.066406 2464.851562 2288.820312 2470.070312 2256.128906 C 2476.34375 2238.242188 2483.089844 2220.515625 2489.714844 2202.773438 C 2499.832031 2175.65625 2509.136719 2148.003906 2529.007812 2126.484375 C 2531.304688 2119.601562 2533.425781 2112.6875 2535.128906 2105.664062 C 2543.25 2072.277344 2545.972656 2037.824219 2556.335938 2004.941406 C 2575.726562 1943.457031 2608.949219 1886.113281 2645.601562 1833.417969 C 2661.921875 1809.9375 2679.65625 1787.382812 2698.597656 1766 C 2708.675781 1754.609375 2719.117188 1743.582031 2730.027344 1732.976562 C 2734.273438 1728.863281 2738.605469 1724.777344 2742.953125 1720.777344 C 2746.425781 1717.558594 2749.980469 1714.339844 2753.550781 1711.234375 C 2756.8125 1708.378906 2761.484375 1704.292969 2766.597656 1700.90625 L 2759.027344 1681.035156 C 2761.03125 1678.964844 2763.039062 1676.921875 2765.039062 1674.878906 Z M 2563.621094 2753.390625 C 2566.242188 2749.703125 2572.78125 2755.132812 2574.992188 2756.800781 C 2585.207031 2764.507812 2592.113281 2775.695312 2602.714844 2783.070312 C 2609.925781 2788.089844 2622.449219 2790.203125 2627.566406 2797.667969 C 2631.230469 2803.007812 2631.113281 2810.917969 2631.601562 2817.09375 C 2632.769531 2831.859375 2632.445312 2846.675781 2634.429688 2861.378906 C 2635.949219 2872.617188 2642.964844 2890.109375 2637.109375 2900.875 C 2633.597656 2907.332031 2625.300781 2909.496094 2618.480469 2909.605469 C 2589.175781 2910.082031 2584.089844 2880.988281 2579.550781 2858.007812 C 2575.886719 2839.464844 2571.746094 2821.203125 2567.066406 2802.890625 Z M 4004.585938 2450.976562 C 4007.886719 2453.273438 4011.332031 2457.851562 4013.234375 2461.28125 C 4014.242188 2463.109375 4015.277344 2465.882812 4012.839844 2467.0625 C 4007.664062 2469.542969 3999.183594 2467.359375 3993.671875 2467.246094 C 3990.03125 2467.171875 3981.945312 2468.960938 3979.707031 2465.070312 Z M 3943.773438 2452.164062 C 3951.160156 2450.359375 3961.65625 2452.972656 3968.847656 2454.65625 C 3969.800781 2454.882812 3978.867188 2456.894531 3976.066406 2459.691406 C 3974.023438 2461.761719 3970.5 2462.132812 3967.757812 2462.5 C 3959.835938 2463.558594 3951.859375 2462.660156 3943.941406 2462.222656 C 3923.398438 2461.09375 3903.5 2467.871094 3882.902344 2467.714844 C 3877.445312 2467.675781 3871.011719 2468.101562 3865.691406 2466.574219 C 3861.859375 2465.480469 3860.460938 2462.234375 3863.398438 2459.210938 C 3866.644531 2455.863281 3871.765625 2454.40625 3876.074219 2453.050781 C 3894.796875 2447.167969 3913.410156 2439.078125 3933.390625 2440.539062 Z M 3976.683594 2424.820312 C 3974.558594 2426.609375 3966.777344 2432.191406 3969.910156 2435.527344 C 3971.480469 2437.207031 3974.894531 2436.890625 3976.90625 2436.71875 C 3983.820312 2436.132812 3990.285156 2433.183594 3996.527344 2430.367188 C 4013.121094 2422.871094 4029.632812 2416.148438 4047.851562 2413.75 C 4055.855469 2412.699219 4063.945312 2412.378906 4071.976562 2411.917969 C 4076.171875 2411.675781 4080.621094 2411.679688 4084.597656 2410.179688 C 4087.171875 2409.207031 4086.949219 2406.953125 4085.492188 2405.039062 C 4083.476562 2402.34375 4080.203125 2400.414062 4077.125 2399.199219 C 4068.476562 2395.828125 4059.269531 2398.105469 4050.648438 2400.273438 C 4042.367188 2402.367188 4034.027344 2404.414062 4025.769531 2406.726562 Z M 2878.609375 2108.292969 C 2882.472656 2107.0625 2889.074219 2110.28125 2892.574219 2111.566406 C 2895.484375 2112.632812 2898.449219 2113.777344 2901.164062 2115.234375 C 2903.039062 2116.242188 2904.382812 2117.222656 2906.089844 2118.480469 C 2906.761719 2118.957031 2907.660156 2119.601562 2908.246094 2120.214844 C 2914.851562 2126.765625 2901.808594 2128.609375 2898.113281 2128.945312 C 2897.023438 2129.03125 2895.960938 2129.113281 2894.867188 2129.171875 C 2889.636719 2129.507812 2884.429688 2129.507812 2879.226562 2129.421875 C 2872.058594 2129.28125 2864.140625 2130.039062 2862.042969 2121.503906 C 2861.734375 2120.328125 2861.734375 2119.179688 2861.761719 2117.949219 Z M 3071.207031 2047.816406 C 3073.53125 2050.585938 3070.925781 2054.644531 3069.695312 2057.277344 C 3066.8125 2063.488281 3064.40625 2069.925781 3062.027344 2076.332031 C 3059.398438 2083.414062 3058.054688 2090.578125 3056.402344 2097.910156 C 3055.785156 2100.738281 3055.003906 2104.710938 3052.261719 2106.335938 C 3043.390625 2111.679688 3037.0625 2093.347656 3036.53125 2088.003906 C 3035.019531 2072.640625 3042.996094 2055.316406 3054.527344 2045.242188 Z M 3733.796875 2013.785156 C 3735.613281 2006.59375 3743.675781 2003.375 3749.355469 2008.777344 C 3755.207031 2014.316406 3756.996094 2023.722656 3760.046875 2030.886719 C 3761.53125 2034.355469 3763.238281 2037.742188 3765.585938 2040.707031 C 3769.535156 2045.691406 3775.046875 2048.710938 3779.71875 2052.882812 C 3781.847656 2054.785156 3784.308594 2057.667969 3781.847656 2060.324219 C 3779.636719 2062.675781 3775.773438 2063.574219 3772.78125 2064.046875 C 3763.460938 2065.558594 3754.730469 2061.753906 3745.496094 2062.230469 C 3735.753906 2062.761719 3728.871094 2069.871094 3720.726562 2074.234375 C 3716.109375 2076.699219 3710.007812 2078.433594 3705.894531 2074.152344 C 3698.140625 2066.035156 3701.921875 2051.847656 3704.328125 2042.414062 C 3706.089844 2035.476562 3707.714844 2029.011719 3715.519531 2027.582031 Z M 2786.082031 1987.589844 C 2790.507812 1988.011719 2794.941406 1988.320312 2799.355469 1988.738281 C 2811.554688 1998.980469 2818.441406 2013.421875 2824.234375 2028.003906 C 2827.253906 2035.585938 2830.753906 2044.011719 2829.1875 2052.351562 C 2828.457031 2056.210938 2826.695312 2059.710938 2824.484375 2062.984375 C 2816.03125 2061.667969 2807.023438 2061.921875 2800.527344 2061.808594 C 2780.324219 2061.417969 2760.085938 2062.003906 2739.871094 2062.171875 C 2719.542969 2062.3125 2700.148438 2062.3125 2680.292969 2067.265625 C 2670.332031 2069.730469 2659.773438 2073.925781 2649.414062 2074.09375 C 2640.007812 2074.234375 2636.808594 2066.511719 2640.175781 2058.507812 C 2650.042969 2035.109375 2680.84375 2033.179688 2699.328125 2019.773438 C 2700.800781 2018.710938 2702.371094 2017.5625 2703.957031 2016.359375 C 2713.71875 2016.554688 2723.589844 2017.480469 2733.167969 2016.304688 C 2749.957031 2014.207031 2767.4375 2007.992188 2780.011719 1996.292969 C 2782.605469 1993.859375 2784.941406 1990.976562 2786.082031 1987.589844 Z M 3840.871094 2057.667969 C 3840.140625 2055.679688 3839.890625 2053.664062 3839.863281 2051.539062 C 3839.863281 2049.046875 3839.863281 2045.941406 3841.09375 2043.675781 C 3842.6875 2040.707031 3846.941406 2039.394531 3850.019531 2039.113281 C 3857.015625 2038.523438 3864.378906 2040.429688 3871.261719 2041.492188 C 3875.515625 2042.164062 3879.796875 2042.695312 3884.023438 2043.480469 C 3885.507812 2043.785156 3887.660156 2044.148438 3888.527344 2045.632812 C 3889.339844 2047.03125 3888.054688 2048.488281 3887.101562 2049.441406 C 3884.191406 2052.292969 3880.496094 2054.308594 3876.71875 2055.765625 C 3872.96875 2057.191406 3869.023438 2057.949219 3865.105469 2058.816406 C 3858.386719 2060.324219 3852.035156 2062.675781 3845.402344 2064.441406 Z M 2730.554688 1970.4375 C 2732.140625 1970.800781 2733.566406 1971.246094 2734.699219 1971.640625 C 2744.257812 1975.082031 2752.726562 1980.789062 2762.550781 1983.644531 C 2762.996094 1983.785156 2763.429688 1983.898438 2763.871094 1984.007812 C 2754.929688 1991.117188 2746.320312 2002.339844 2734.601562 2003.402344 C 2728.832031 2003.933594 2722.992188 2002.898438 2717.207031 2001.554688 C 2718.140625 1999.402344 2718.683594 1997.078125 2718.683594 1994.617188 C 2718.695312 1989.550781 2712.644531 1980.820312 2713.429688 1975.222656 Z M 3203.746094 1869.128906 C 3201.871094 1868.707031 3202.429688 1865.742188 3202.683594 1864.480469 C 3203.886719 1858.746094 3207.132812 1854.128906 3210.9375 1849.816406 C 3221.433594 1837.8125 3236.546875 1825.636719 3231.398438 1807.613281 C 3230.613281 1804.816406 3229.324219 1802.15625 3227.785156 1799.695312 C 3225.632812 1796.28125 3222.636719 1792.867188 3218.804688 1791.273438 C 3210.828125 1787.96875 3206.65625 1795.496094 3204.390625 1802.019531 C 3199.4375 1816.347656 3199.046875 1831.824219 3191.796875 1845.394531 C 3184.074219 1859.835938 3170.050781 1869.296875 3159.222656 1881.21875 C 3154.242188 1886.675781 3148.027344 1893.53125 3147.71875 1901.367188 C 3147.382812 1910.015625 3155.21875 1916.535156 3161.851562 1920.675781 C 3178.054688 1930.78125 3194.316406 1930.835938 3212.28125 1926.386719 C 3218.132812 1924.929688 3228.066406 1923.867188 3232.039062 1918.746094 C 3235.734375 1913.960938 3233.132812 1906.488281 3230.949219 1901.675781 C 3225.574219 1889.726562 3216.171875 1880.796875 3213.457031 1867.589844 Z M 3238.335938 1857.878906 C 3237.722656 1867.449219 3238.085938 1880.546875 3244.128906 1888.4375 C 3246.621094 1891.710938 3250.316406 1893.753906 3253.839844 1895.742188 C 3259.578125 1898.933594 3265.425781 1901.898438 3271.359375 1904.699219 C 3276.425781 1907.046875 3281.632812 1909.847656 3287.117188 1911.078125 C 3289.550781 1911.636719 3292.042969 1911.667969 3293.664062 1909.511719 C 3297.777344 1904.054688 3294.058594 1894.371094 3291.511719 1889.109375 C 3288.125 1882.167969 3282.945312 1876.292969 3278.609375 1869.9375 C 3271.667969 1859.835938 3265.902344 1841.03125 3250.761719 1842.484375 Z M 4005.285156 1665.027344 C 4008.167969 1666.089844 4011.917969 1665.726562 4014.800781 1665.503906 C 4023 1664.917969 4031.058594 1663.097656 4039.09375 1661.472656 C 4056.050781 1658.03125 4072.449219 1655.121094 4089.773438 1656.746094 C 4102.253906 1657.890625 4114.542969 1660.074219 4127.105469 1659.152344 C 4132.507812 1658.730469 4138.75 1658.253906 4143.480469 1655.316406 C 4146.808594 1653.246094 4144.542969 1650.027344 4142.359375 1648.207031 C 4138.414062 1644.960938 4128.058594 1641.742188 4128.367188 1635.390625 C 4128.589844 1630.941406 4133.097656 1627.050781 4134.382812 1622.796875 C 4136.425781 1616.023438 4134.832031 1608.75 4135.726562 1601.835938 C 4137.070312 1591.0625 4144.121094 1575.445312 4130.855469 1569.457031 C 4128.898438 1568.5625 4127.078125 1568 4124.980469 1567.527344 C 4121.566406 1566.742188 4118.125 1566.40625 4114.625 1566.492188 C 4109.726562 1566.601562 4104.496094 1567.273438 4099.847656 1568.953125 C 4091.789062 1571.863281 4097.75 1576.203125 4101.863281 1580.035156 C 4106.285156 1584.175781 4110.539062 1589.328125 4111.015625 1595.59375 C 4111.492188 1601.640625 4108.46875 1607.488281 4105.390625 1612.5 C 4101.332031 1619.074219 4096.238281 1625.398438 4090.417969 1630.746094 C 4090.558594 1625.597656 4091.875 1620.167969 4092.320312 1616.613281 C 4094.644531 1598.253906 4090.222656 1576.257812 4068.503906 1573.261719 C 4065.117188 1572.816406 4061.648438 1572.84375 4058.261719 1573.207031 C 4054.066406 1573.625 4049.445312 1574.605469 4046.507812 1577.910156 C 4037.945312 1587.421875 4046.226562 1605.167969 4030.613281 1610.148438 C 4016.703125 1614.570312 4008.953125 1597.75 3996.414062 1595.457031 C 3991.710938 1594.589844 3986.84375 1594.839844 3982.195312 1595.707031 C 3978.277344 1596.464844 3974.332031 1597.582031 3970.640625 1599.09375 C 3967.167969 1600.519531 3963.753906 1602.3125 3960.789062 1604.664062 C 3955.105469 1609.167969 3954.40625 1614.570312 3954.828125 1620.445312 C 3947.074219 1623.664062 3939.40625 1627.109375 3931.402344 1629.710938 C 3910.664062 1636.511719 3888.109375 1638.246094 3873.78125 1657.332031 C 3864.210938 1670.09375 3884.359375 1682.070312 3872.242188 1693.097656 C 3858.304688 1705.773438 3837.484375 1705.523438 3820.636719 1711.707031 C 3815.851562 1713.472656 3803.621094 1717.613281 3804.207031 1724.582031 C 3804.738281 1730.597656 3814.226562 1737.511719 3817.304688 1742.632812 C 3820.160156 1747.363281 3822.371094 1753.519531 3826.261719 1757.492188 C 3830.960938 1762.335938 3837.988281 1755.03125 3841.542969 1752.121094 C 3850.273438 1744.957031 3858.921875 1736.140625 3869.472656 1731.660156 C 3873.277344 1730.066406 3880.160156 1727.910156 3883.605469 1731.523438 C 3889.171875 1737.398438 3876.941406 1748.203125 3873.527344 1751.585938 C 3862.136719 1762.867188 3841.707031 1778.539062 3843.191406 1796.730469 C 3843.75 1803.363281 3848.398438 1802.578125 3853.070312 1800.113281 C 3861.550781 1795.664062 3869.136719 1789.59375 3878.398438 1786.738281 C 3880.414062 1786.121094 3887.523438 1783.601562 3889.089844 1786.457031 C 3890.402344 1788.835938 3885.480469 1792.8125 3884.21875 1794.070312 C 3878.007812 1800.28125 3871.710938 1806.609375 3866.363281 1813.605469 C 3865.019531 1815.367188 3860.570312 1820.515625 3862.699219 1823.0625 C 3864.292969 1824.964844 3868.183594 1823.59375 3870.058594 1823.148438 C 3876.019531 1821.746094 3881.785156 1819.816406 3887.410156 1817.410156 C 3899.445312 1812.261719 3910.441406 1805.179688 3920.265625 1796.53125 C 3928.296875 1789.425781 3935.515625 1781.308594 3944.472656 1775.292969 C 3956.28125 1767.371094 3969.800781 1766.113281 3983.679688 1767.203125 C 3992.777344 1767.960938 4006.574219 1772.101562 4013.570312 1763.816406 C 4021.574219 1754.359375 4005.566406 1749.179688 3998.90625 1748.230469 C 3988.464844 1746.746094 3978 1747.445312 3967.476562 1747.109375 C 3963.25 1747 3957.597656 1747.304688 3953.820312 1745.011719 C 3950.265625 1742.882812 3950.347656 1736.980469 3947.300781 1734.039062 C 3942.542969 1729.449219 3936.636719 1725.699219 3935.824219 1718.480469 C 3934.371094 1705.523438 3947.132812 1694.75 3956.703125 1688.5625 C 3971.898438 1678.742188 3989.136719 1672.949219 4005.285156 1665.027344 Z M 3594.371094 1358.921875 C 3668.03125 1363.59375 3739.671875 1375.738281 3808.519531 1394.601562 L 3891.160156 1430.394531 C 3885.171875 1449.566406 3863.511719 1462.550781 3845.234375 1467.28125 C 3831.691406 1470.78125 3817.585938 1471.394531 3805.1875 1478.558594 C 3791.699219 1486.339844 3781.316406 1500.445312 3776.894531 1515.277344 C 3773.925781 1525.210938 3774.90625 1539.398438 3767.433594 1547.433594 C 3761.25 1554.066406 3750.839844 1556.050781 3742.667969 1559.019531 C 3730.859375 1563.300781 3718.992188 1569.707031 3711.714844 1580.34375 C 3697.050781 1601.808594 3716.472656 1620.78125 3735.082031 1630.492188 C 3743.871094 1635.082031 3755.90625 1639.253906 3757.050781 1650.753906 C 3758.84375 1668.609375 3739.394531 1684.84375 3733.097656 1700.429688 C 3722.519531 1726.511719 3722.125 1762.277344 3694.253906 1777.558594 C 3675.363281 1787.914062 3652.804688 1783.910156 3632.796875 1790.234375 C 3616.703125 1795.300781 3601.789062 1810.300781 3584.210938 1809.910156 C 3570.582031 1809.601562 3565.574219 1796.898438 3564.285156 1785.171875 C 3561.265625 1758.21875 3576.488281 1727.242188 3566.972656 1701.410156 C 3560.230469 1683.105469 3539.910156 1675.269531 3524.996094 1665.167969 C 3513.269531 1657.191406 3504.816406 1646.445312 3500.058594 1633.125 C 3496.617188 1627.5 3492.921875 1622.097656 3487.859375 1617.453125 C 3477.109375 1607.65625 3463.480469 1601.554688 3451.167969 1594.113281 C 3437.59375 1585.882812 3425.03125 1576.171875 3413.890625 1564.867188 C 3404.601562 1555.4375 3387.5 1536.378906 3390.019531 1521.265625 C 3390.636719 1517.460938 3395.421875 1520.285156 3397.324219 1521.238281 C 3405.664062 1525.433594 3413.527344 1530.417969 3422.007812 1534.390625 C 3425.617188 1536.097656 3429.285156 1537.582031 3433.035156 1538.925781 C 3440.085938 1532.179688 3444.339844 1523.558594 3435.105469 1518.46875 C 3432.390625 1516.957031 3429.253906 1516.339844 3426.234375 1515.921875 C 3415.570312 1514.492188 3386.914062 1518.859375 3394.664062 1498.511719 C 3395.699219 1495.742188 3397.40625 1493.222656 3399.394531 1491.039062 C 3402.699219 1487.457031 3406.839844 1484.746094 3411.371094 1483.007812 C 3419.265625 1479.988281 3427.941406 1479.566406 3436.085938 1477.550781 C 3436.867188 1477.355469 3437.652344 1477.132812 3438.433594 1476.910156 C 3436.390625 1475.367188 3434.515625 1473.632812 3432.867188 1471.648438 C 3417.390625 1452.671875 3444.84375 1440.667969 3456.289062 1431.460938 C 3460.347656 1428.183594 3463.929688 1424.378906 3467.007812 1420.152344 C 3477.894531 1405.152344 3482.484375 1382.597656 3500.199219 1373.585938 C 3517.160156 1364.9375 3540.386719 1371.011719 3557.710938 1375.179688 C 3565.183594 1376.972656 3572.710938 1378.847656 3580.238281 1380.832031 C 3584.800781 1373.390625 3589.5 1366.085938 3594.371094 1358.921875 Z M 4040.210938 1694.160156 C 4039.230469 1692.425781 4039.792969 1690.242188 4040.378906 1688.480469 C 4042.28125 1682.910156 4045.835938 1678.011719 4050.425781 1674.402344 C 4061.3125 1665.839844 4077.292969 1668.359375 4090.277344 1665.753906 C 4095.566406 1664.71875 4103.429688 1661.808594 4108.355469 1665.417969 C 4112.386719 1668.386719 4110.847656 1674.429688 4109.589844 1678.347656 C 4106.984375 1686.296875 4100.214844 1693.964844 4099.679688 1702.445312 C 4099.066406 1712.070312 4108.105469 1718.761719 4105.640625 1729.144531 C 4105.054688 1731.691406 4103.933594 1734.125 4102.339844 1736.222656 C 4090.753906 1751.726562 4073.039062 1736.894531 4060.5 1731.046875 C 4056.332031 1729.117188 4052.1875 1727.324219 4048.242188 1724.945312 Z M 3972.207031 1704.796875 C 3971.898438 1703.144531 3974.136719 1701.4375 3975.230469 1700.402344 C 3976.292969 1699.421875 3977.242188 1698.609375 3978.417969 1697.769531 C 3981.359375 1695.558594 3991.878906 1688.871094 3992.914062 1696.457031 C 3993.363281 1699.898438 3992.691406 1703.339844 3992.300781 1706.726562 C 3991.515625 1713.808594 3991.601562 1720.859375 3985.21875 1725.367188 C 3978.445312 1730.179688 3964.257812 1733.285156 3962.355469 1721.78125 C 3962.019531 1719.769531 3962.355469 1717.753906 3962.71875 1715.738281 Z M 3447.921875 1671.296875 L 3457.296875 1670.710938 C 3464.628906 1667.714844 3468.660156 1659.65625 3461.269531 1653.832031 C 3455.171875 1649.019531 3445.683594 1647.453125 3438.378906 1645.492188 C 3434.601562 1644.488281 3422.148438 1639.421875 3421.53125 1647.035156 C 3421.390625 1648.542969 3421.417969 1649.246094 3421.699219 1650.785156 C 3421.953125 1652.15625 3422.457031 1653.722656 3422.929688 1655.039062 C 3423.964844 1657.917969 3425.28125 1660.632812 3427.042969 1663.125 C 3427.800781 1664.160156 3428.554688 1665.140625 3429.339844 1666.121094 C 3411.765625 1665.867188 3396.511719 1650.390625 3378.433594 1650.054688 C 3370.039062 1649.914062 3361.699219 1651.820312 3353.863281 1654.757812 C 3349.550781 1656.351562 3345.382812 1658.367188 3341.324219 1660.496094 C 3338.609375 1661.949219 3335.894531 1663.460938 3333.40625 1665.28125 C 3332.0625 1666.257812 3330.496094 1667.546875 3329.320312 1668.722656 C 3328.03125 1670.039062 3327.554688 1670.679688 3326.632812 1672.21875 C 3322.460938 1679.273438 3335.113281 1682.296875 3339.253906 1683.441406 C 3340.402344 1683.75 3341.546875 1684.03125 3342.695312 1684.339844 C 3343.957031 1684.675781 3345.1875 1684.980469 3346.445312 1685.316406 C 3347.734375 1685.652344 3349.019531 1685.988281 3350.308594 1686.382812 C 3352.882812 1687.164062 3355.792969 1688.144531 3358.285156 1689.125 C 3361.082031 1690.214844 3363.65625 1691.390625 3366.371094 1692.707031 C 3378.519531 1698.667969 3390.300781 1707.957031 3403.902344 1710.308594 C 3417.304688 1712.632812 3431.128906 1706.980469 3441.933594 1699.339844 C 3445.851562 1696.566406 3450.441406 1692.761719 3451.53125 1687.808594 C 3452.652344 1682.769531 3449.9375 1676.671875 3447.921875 1671.296875 Z M 4253.15625 1661.835938 C 4250.945312 1660.296875 4247.363281 1660.914062 4244.953125 1661.417969 C 4236.699219 1663.097656 4230.457031 1668.359375 4226.175781 1675.578125 C 4224.132812 1679.050781 4221.445312 1683.777344 4224.328125 1687.527344 C 4232.835938 1698.640625 4247.445312 1688.144531 4254.804688 1681.679688 C 4258.640625 1678.320312 4264.042969 1674.460938 4262.082031 1668.777344 Z M 4229.816406 1634.382812 C 4229.28125 1638.160156 4229.730469 1641.828125 4228.777344 1645.605469 C 4228.023438 1648.574219 4226.847656 1651.652344 4224.722656 1653.917969 C 4221.839844 1656.996094 4217.667969 1657.640625 4213.609375 1657.949219 C 4207.175781 1658.480469 4200.738281 1658.199219 4194.328125 1659.125 C 4188.226562 1659.992188 4182.097656 1662.371094 4175.886719 1662.453125 C 4173.199219 1662.480469 4170.121094 1661.949219 4168.863281 1659.234375 C 4167.015625 1655.207031 4169.757812 1650.753906 4172.25 1647.703125 C 4176.640625 1642.246094 4183.132812 1638.105469 4186.242188 1631.667969 C 4189.347656 1625.34375 4188.871094 1618.488281 4193.292969 1612.640625 Z M 4090.417969 1518.132812 C 4103.125 1526.050781 4115.660156 1534.25 4128.03125 1542.703125 C 4127.472656 1543.179688 4126.882812 1543.570312 4126.210938 1543.933594 C 4117.84375 1548.328125 4106.789062 1546.230469 4097.75 1548.410156 C 4078.636719 1552.972656 4064.222656 1564.671875 4043.683594 1559.886719 C 4034.167969 1557.675781 4011.527344 1545.667969 4025.601562 1533.523438 C 4028.148438 1531.3125 4031.285156 1529.6875 4034.304688 1528.234375 C 4042.085938 1524.597656 4050.117188 1521.796875 4057.617188 1517.570312 Z M 3535.460938 1468.234375 L 3535.125 1469.042969 C 3534.257812 1468.960938 3533.390625 1468.875 3532.523438 1468.792969 L 3535.628906 1467.839844 L 3535.460938 1468.234375" fill="#04584f"/></g><g id="change3_4"><path d="M 3131.636719 2524.105469 C 3131.636719 2524.105469 2544.832031 2585.527344 2087.726562 2583.96875 C 1818.617188 2583.046875 1578.527344 2520.453125 1572.375 2517.628906 C 1532.289062 2499.222656 1492.914062 2477.707031 1450.523438 2464.871094 C 1440.09375 2461.722656 1415.820312 2456.820312 1422.503906 2476.535156 C 1423.53125 2479.570312 1425.109375 2482.433594 1426.902344 2485.082031 C 1435.921875 2498.417969 1450.578125 2506.773438 1464.46875 2514.191406 C 1467.644531 2515.882812 1470.820312 2517.554688 1474.003906 2519.242188 C 1464.082031 2518.109375 1454.203125 2516.554688 1444.488281 2515.054688 C 1411.953125 2510.023438 1379.695312 2503.414062 1347.199219 2498.167969 C 1332.394531 2495.785156 1317.195312 2493.308594 1302.148438 2493.539062 C 1296.082031 2493.632812 1287.652344 2493.804688 1282.820312 2498.167969 C 1277.785156 2502.703125 1282.679688 2508.773438 1286.53125 2512.078125 C 1297.238281 2521.28125 1312.214844 2526.179688 1325.414062 2530.464844 C 1364.261719 2543.105469 1420.921875 2553.769531 1440.941406 2559.609375 C 1443.332031 2560.300781 1447.140625 2562.914062 1445.53125 2565.488281 C 1444.742188 2566.757812 1442.25 2567.390625 1440.433594 2567.46875 C 1437.324219 2567.582031 1431.882812 2566.988281 1426.894531 2566.21875 C 1394.359375 2561.203125 1362.101562 2554.59375 1329.601562 2549.347656 C 1314.796875 2546.96875 1299.597656 2544.488281 1284.550781 2544.71875 C 1278.488281 2544.816406 1270.054688 2544.96875 1265.226562 2549.332031 C 1260.195312 2553.882812 1265.085938 2559.953125 1268.9375 2563.257812 C 1279.644531 2572.441406 1294.617188 2577.363281 1307.816406 2581.644531 C 1347.304688 2594.480469 1402.5 2605.105469 1422.988281 2611.195312 C 1426.324219 2612.195312 1432.652344 2615.132812 1430.746094 2618.1875 C 1430.136719 2619.148438 1426.355469 2619.246094 1424.171875 2618.9375 C 1408.292969 2616.652344 1366.4375 2609.484375 1335.464844 2604.488281 C 1320.664062 2602.105469 1305.464844 2599.628906 1290.417969 2599.859375 C 1284.355469 2599.957031 1275.921875 2600.109375 1271.089844 2604.46875 C 1266.058594 2609.023438 1270.949219 2615.09375 1274.804688 2618.398438 C 1285.511719 2627.582031 1300.484375 2632.5 1313.683594 2636.785156 C 1350.40625 2648.714844 1400.265625 2658.726562 1419.152344 2664.355469 C 1422.339844 2665.296875 1428.554688 2668.023438 1427 2670.523438 C 1425.890625 2672.308594 1421.878906 2671.773438 1419.285156 2671.65625 C 1412.777344 2671.328125 1399.179688 2670.425781 1387.964844 2668.621094 C 1373.164062 2666.21875 1357.960938 2663.742188 1342.917969 2663.992188 C 1336.855469 2664.066406 1328.417969 2664.242188 1323.585938 2668.601562 C 1318.554688 2673.136719 1323.449219 2679.207031 1327.300781 2682.511719 C 1338.007812 2691.714844 1352.984375 2696.613281 1366.183594 2700.898438 C 1389.007812 2708.332031 1716.222656 2773.597656 2063.269531 2776.421875 C 2537.453125 2780.285156 3069.773438 2720.378906 3107.5625 2722.78125 L 3131.636719 2524.105469" fill="#6e97b6"/></g><g id="change2_7"><path d="M 1717.304688 2769.582031 C 1717.304688 2769.582031 1842.675781 2771.386719 2022.417969 2769.164062 C 2232.570312 2766.546875 2517.058594 2758.433594 2762.367188 2735.480469 C 3030.324219 2710.417969 3263.824219 2626.515625 3269.695312 2623.148438 C 3307.949219 2601.230469 3345.242188 2576.253906 3386.3125 2559.675781 C 3396.425781 2555.605469 3420.148438 2548.527344 3415.269531 2568.753906 C 3414.523438 2571.875 3413.203125 2574.867188 3411.664062 2577.679688 C 3403.859375 2591.773438 3390.027344 2601.40625 3376.859375 2610.046875 C 3373.847656 2612.003906 3370.832031 2613.960938 3367.800781 2615.917969 C 3377.582031 2613.914062 3387.28125 2611.476562 3396.820312 2609.101562 C 3428.769531 2601.183594 3460.320312 2591.707031 3492.203125 2583.574219 C 3506.734375 2579.859375 3521.664062 2576.03125 3536.660156 2574.910156 C 3542.707031 2574.449219 3551.125 2573.855469 3556.316406 2577.769531 C 3561.746094 2581.835938 3557.414062 2588.324219 3553.875 2591.972656 C 3544.046875 2602.085938 3529.558594 2608.308594 3516.804688 2613.785156 C 3479.25 2629.835938 3423.777344 2645.554688 3404.363281 2653.164062 C 3402.03125 2654.0625 3398.492188 2657.011719 3400.316406 2659.429688 C 3401.21875 2660.617188 3403.746094 2661.035156 3405.574219 2660.945312 C 3408.671875 2660.792969 3414.039062 2659.714844 3418.941406 2658.484375 C 3450.886719 2650.566406 3482.4375 2641.089844 3514.320312 2632.957031 C 3528.851562 2629.242188 3543.78125 2625.414062 3558.777344 2624.292969 C 3564.824219 2623.855469 3573.246094 2623.261719 3578.457031 2627.152344 C 3583.863281 2631.242188 3579.535156 2637.726562 3575.992188 2641.355469 C 3566.164062 2651.46875 3551.675781 2657.714844 3538.921875 2663.167969 C 3500.753906 2679.503906 3446.730469 2695.023438 3426.878906 2702.941406 C 3423.644531 2704.214844 3417.601562 2707.710938 3419.777344 2710.59375 C 3420.457031 2711.492188 3424.238281 2711.25 3426.394531 2710.746094 C 3442.003906 2707.050781 3483.03125 2696.148438 3513.441406 2688.386719 C 3527.972656 2684.691406 3542.882812 2680.867188 3557.898438 2679.746094 C 3563.945312 2679.28125 3572.34375 2678.6875 3577.554688 2682.601562 C 3582.964844 2686.671875 3578.652344 2693.15625 3575.113281 2696.804688 C 3565.265625 2706.921875 3550.796875 2713.140625 3538.023438 2718.59375 C 3502.535156 2733.789062 3453.769531 2748.234375 3435.453125 2755.535156 C 3432.375 2756.765625 3426.4375 2760.039062 3428.199219 2762.371094 C 3429.472656 2764.042969 3433.410156 2763.164062 3435.980469 2762.8125 C 3442.445312 2761.910156 3455.902344 2759.777344 3466.917969 2756.960938 C 3481.425781 2753.269531 3496.355469 2749.421875 3511.351562 2748.320312 C 3517.398438 2747.859375 3525.820312 2747.265625 3531.03125 2751.179688 C 3536.4375 2755.246094 3532.109375 2761.734375 3528.566406 2765.382812 C 3518.738281 2775.496094 3504.25 2781.71875 3491.496094 2787.171875 C 3469.421875 2796.625 3149.402344 2891.007812 2804.011719 2924.96875 C 2332.085938 2971.371094 1796.527344 2959.5 1759.109375 2965.289062 L 1717.304688 2769.582031" fill="#f56740"/></g><g id="change5_1"><path d="M 1433.777344 2212.097656 C 1485.222656 2150.417969 1575.09375 2153.0625 1622.921875 2182.105469 C 1628.777344 2185.652344 1636.414062 2183.78125 1639.972656 2177.921875 C 1643.523438 2172.082031 1641.65625 2164.445312 1635.804688 2160.878906 C 1579.890625 2126.933594 1474.855469 2124.09375 1414.714844 2196.203125 C 1410.328125 2201.460938 1411.035156 2209.292969 1416.296875 2213.6875 C 1421.558594 2218.0625 1429.390625 2217.355469 1433.777344 2212.097656" fill="inherit"/></g><g id="change5_2"><path d="M 3470.066406 2216.527344 C 3418.628906 2154.84375 3328.738281 2157.480469 3280.925781 2186.519531 C 3275.074219 2190.078125 3267.421875 2188.214844 3263.863281 2182.363281 C 3260.304688 2176.511719 3262.191406 2168.859375 3268.042969 2165.304688 C 3323.960938 2131.355469 3428.980469 2128.523438 3489.121094 2200.625 C 3493.515625 2205.894531 3492.804688 2213.71875 3487.535156 2218.113281 C 3482.28125 2222.507812 3474.460938 2221.800781 3470.066406 2216.527344" fill="inherit"/></g><g id="change5_3"><path d="M 2152.316406 2114.183594 C 2086.242188 2068.519531 2000.359375 2095.101562 1962.050781 2135.882812 C 1957.363281 2140.875 1949.503906 2141.128906 1944.507812 2136.445312 C 1939.515625 2131.742188 1939.261719 2123.882812 1943.964844 2118.886719 C 1988.738281 2071.226562 2089.1875 2040.375 2166.425781 2093.757812 C 2172.074219 2097.664062 2173.488281 2105.398438 2169.585938 2111.027344 C 2165.699219 2116.65625 2157.964844 2118.070312 2152.316406 2114.183594" fill="inherit"/></g><g id="change5_4"><path d="M 2751.515625 2118.589844 C 2817.589844 2072.941406 2903.46875 2099.53125 2941.773438 2140.304688 C 2946.464844 2145.308594 2954.339844 2145.542969 2959.324219 2140.851562 C 2964.324219 2136.160156 2964.5625 2128.304688 2959.871094 2123.320312 C 2915.09375 2075.632812 2814.644531 2044.804688 2737.402344 2098.183594 C 2731.761719 2102.078125 2730.34375 2109.804688 2734.234375 2115.445312 C 2738.128906 2121.082031 2745.875 2122.5 2751.515625 2118.589844" fill="inherit"/></g><g id="change5_5"><path d="M 1688.808594 2331.898438 C 1764.160156 2438.753906 1910.21875 2392.390625 1927.648438 2294.066406 C 1928.835938 2287.320312 1924.328125 2280.875 1917.582031 2279.6875 C 1910.835938 2278.488281 1904.390625 2282.996094 1903.207031 2289.738281 C 1889.082031 2369.464844 1770.203125 2404.242188 1709.09375 2317.589844 C 1705.136719 2311.980469 1697.390625 2310.644531 1691.796875 2314.601562 C 1686.1875 2318.542969 1684.851562 2326.289062 1688.808594 2331.898438" fill="inherit"/></g><g id="change5_6"><path d="M 3215.039062 2336.316406 C 3139.679688 2443.175781 2993.621094 2396.804688 2976.203125 2298.496094 C 2974.996094 2291.742188 2979.519531 2285.304688 2986.253906 2284.101562 C 2993.007812 2282.917969 2999.445312 2287.417969 3000.652344 2294.171875 C 3014.769531 2373.898438 3133.636719 2408.675781 3194.757812 2322.019531 C 3198.707031 2316.410156 3206.449219 2315.085938 3212.058594 2319.015625 C 3217.644531 2322.964844 3218.988281 2330.726562 3215.039062 2336.316406" fill="inherit"/></g><g id="change6_1"><path d="M 1469.554688 2228.804688 C 1511.464844 2228.804688 1545.492188 2248.542969 1545.492188 2272.835938 C 1545.492188 2297.148438 1511.464844 2316.886719 1469.554688 2316.886719 C 1427.648438 2316.886719 1393.621094 2297.148438 1393.621094 2272.835938 C 1393.621094 2248.542969 1427.648438 2228.804688 1469.554688 2228.804688" fill="#ff7650"/></g><g id="change7_1"><path d="M 3434.289062 2233.234375 C 3392.382812 2233.234375 3358.355469 2252.960938 3358.355469 2277.273438 C 3358.355469 2301.566406 3392.382812 2321.3125 3434.289062 2321.3125 C 3476.195312 2321.3125 3510.222656 2301.566406 3510.222656 2277.273438 C 3510.222656 2252.960938 3476.195312 2233.234375 3434.289062 2233.234375" fill="#e95d37"/></g><g id="change6_2"><path d="M 2106.445312 2142.007812 C 2148.351562 2142.007812 2182.382812 2161.730469 2182.382812 2186.050781 C 2182.382812 2210.351562 2148.351562 2230.078125 2106.445312 2230.078125 C 2064.539062 2230.078125 2030.507812 2210.351562 2030.507812 2186.050781 C 2030.507812 2161.730469 2064.539062 2142.007812 2106.445312 2142.007812" fill="#ff7650"/></g><g id="change7_2"><path d="M 2797.375 2146.429688 C 2755.472656 2146.429688 2721.453125 2166.152344 2721.453125 2190.460938 C 2721.453125 2214.769531 2755.472656 2234.511719 2797.375 2234.511719 C 2839.292969 2234.511719 2873.316406 2214.769531 2873.316406 2190.460938 C 2873.316406 2166.152344 2839.292969 2146.429688 2797.375 2146.429688" fill="#e95d37"/></g><g id="change8_1"><path d="M 3937.136719 1273.617188 C 3938.382812 1278.445312 3941.839844 1281.679688 3945.722656 1281.679688 C 3949.628906 1281.679688 3953.0625 1278.445312 3954.328125 1273.617188 C 3958.609375 1257.046875 3963.832031 1236.894531 3968.3125 1219.605469 C 3974.65625 1195.121094 3989.335938 1175.890625 4008.019531 1167.582031 C 4021.207031 1161.710938 4036.582031 1154.867188 4049.222656 1149.246094 C 4052.902344 1147.601562 4055.390625 1143.074219 4055.390625 1138 C 4055.390625 1132.898438 4052.902344 1128.371094 4049.222656 1126.726562 C 4036.582031 1121.105469 4021.207031 1114.261719 4008.019531 1108.417969 C 3989.335938 1100.105469 3974.65625 1080.875 3968.3125 1056.367188 C 3963.832031 1039.078125 3958.609375 1018.925781 3954.328125 1002.355469 C 3953.0625 997.527344 3949.628906 994.292969 3945.722656 994.292969 C 3941.839844 994.292969 3938.382812 997.527344 3937.136719 1002.355469 C 3932.832031 1018.925781 3927.632812 1039.078125 3923.15625 1056.367188 C 3916.8125 1080.875 3902.132812 1100.105469 3883.449219 1108.417969 C 3870.238281 1114.261719 3854.859375 1121.105469 3842.222656 1126.726562 C 3838.539062 1128.371094 3836.078125 1132.898438 3836.078125 1138 C 3836.078125 1143.074219 3838.539062 1147.601562 3842.222656 1149.246094 C 3854.859375 1154.867188 3870.238281 1161.710938 3883.449219 1167.582031 C 3902.132812 1175.890625 3916.8125 1195.121094 3923.15625 1219.605469 C 3927.632812 1236.894531 3932.832031 1257.046875 3937.136719 1273.617188" fill="#f5be51"/></g><g id="change8_2"><path d="M 733.96875 3609.796875 C 735.21875 3614.628906 738.671875 3617.867188 742.5625 3617.867188 C 746.449219 3617.867188 749.90625 3614.628906 751.15625 3609.796875 C 755.445312 3593.222656 760.660156 3573.078125 765.136719 3555.796875 C 771.476562 3531.296875 786.15625 3512.0625 804.847656 3503.753906 C 818.042969 3497.886719 833.417969 3491.054688 846.066406 3485.429688 C 849.746094 3483.792969 852.222656 3479.265625 852.222656 3474.175781 C 852.222656 3469.074219 849.746094 3464.546875 846.066406 3462.90625 C 833.417969 3457.285156 818.042969 3450.453125 804.847656 3444.585938 C 786.15625 3436.277344 771.476562 3417.042969 765.136719 3392.550781 C 760.660156 3375.261719 755.445312 3355.117188 751.15625 3338.542969 C 749.90625 3333.71875 746.449219 3330.472656 742.5625 3330.472656 C 738.671875 3330.472656 735.21875 3333.71875 733.96875 3338.542969 C 729.679688 3355.117188 724.460938 3375.261719 719.984375 3392.550781 C 713.644531 3417.042969 698.96875 3436.277344 680.273438 3444.585938 C 667.082031 3450.453125 651.703125 3457.285156 639.058594 3462.90625 C 635.375 3464.546875 632.898438 3469.074219 632.898438 3474.175781 C 632.898438 3479.265625 635.375 3483.792969 639.058594 3485.429688 C 651.703125 3491.054688 667.082031 3497.886719 680.273438 3503.753906 C 698.96875 3512.0625 713.644531 3531.296875 719.984375 3555.796875 C 724.460938 3573.078125 729.679688 3593.222656 733.96875 3609.796875" fill="#f5be51"/></g><g id="change8_3"><path d="M 1045.675781 1271.996094 C 1046.925781 1276.8125 1050.382812 1280.058594 1054.269531 1280.058594 C 1058.160156 1280.058594 1061.617188 1276.8125 1062.863281 1271.996094 C 1067.152344 1255.425781 1072.367188 1235.265625 1076.84375 1217.980469 C 1083.1875 1193.496094 1097.867188 1174.246094 1116.558594 1165.9375 C 1129.753906 1160.085938 1145.128906 1153.25 1157.773438 1147.621094 C 1161.457031 1145.996094 1163.933594 1141.449219 1163.933594 1136.359375 C 1163.933594 1131.269531 1161.457031 1126.746094 1157.773438 1125.101562 C 1145.128906 1119.46875 1129.753906 1112.636719 1116.558594 1106.785156 C 1097.867188 1098.476562 1083.1875 1079.226562 1076.84375 1054.738281 C 1072.367188 1037.453125 1067.152344 1017.296875 1062.863281 1000.726562 C 1061.617188 995.90625 1058.160156 992.660156 1054.269531 992.660156 C 1050.382812 992.660156 1046.925781 995.90625 1045.675781 1000.726562 C 1041.382812 1017.296875 1036.171875 1037.453125 1031.695312 1054.738281 C 1025.351562 1079.226562 1010.675781 1098.476562 991.980469 1106.785156 C 978.789062 1112.636719 963.414062 1119.46875 950.765625 1125.101562 C 947.085938 1126.746094 944.605469 1131.269531 944.605469 1136.359375 C 944.605469 1141.449219 947.085938 1145.996094 950.765625 1147.621094 C 963.414062 1153.25 978.789062 1160.085938 991.980469 1165.9375 C 1010.675781 1174.246094 1025.351562 1193.496094 1031.695312 1217.980469 C 1036.171875 1235.265625 1041.382812 1255.425781 1045.675781 1271.996094" fill="#f5be51"/></g><g id="change8_4"><path d="M 4203.089844 3943.175781 C 4204.335938 3948 4207.808594 3951.25 4211.707031 3951.25 C 4215.578125 3951.25 4219.050781 3948 4220.296875 3943.175781 C 4224.589844 3926.605469 4229.789062 3906.457031 4234.269531 3889.167969 C 4240.605469 3864.675781 4255.292969 3845.4375 4273.980469 3837.128906 C 4287.183594 3831.265625 4302.5625 3824.429688 4315.207031 3818.808594 C 4318.894531 3817.171875 4321.359375 3812.644531 4321.359375 3807.550781 C 4321.359375 3802.453125 4318.894531 3797.925781 4315.207031 3796.285156 C 4302.5625 3790.667969 4287.183594 3783.832031 4273.980469 3777.96875 C 4255.292969 3769.660156 4240.605469 3750.421875 4234.269531 3725.929688 C 4229.789062 3708.640625 4224.589844 3688.492188 4220.296875 3671.917969 C 4219.050781 3667.09375 4215.578125 3663.847656 4211.707031 3663.847656 C 4207.808594 3663.847656 4204.335938 3667.09375 4203.089844 3671.917969 C 4198.824219 3688.492188 4193.601562 3708.640625 4189.121094 3725.929688 C 4182.78125 3750.421875 4168.097656 3769.660156 4149.40625 3777.96875 C 4136.203125 3783.832031 4120.824219 3790.667969 4108.179688 3796.285156 C 4104.519531 3797.925781 4102.03125 3802.453125 4102.03125 3807.550781 C 4102.03125 3812.644531 4104.519531 3817.171875 4108.179688 3818.808594 C 4120.824219 3824.429688 4136.203125 3831.265625 4149.40625 3837.128906 C 4168.097656 3845.4375 4182.78125 3864.675781 4189.121094 3889.167969 C 4193.601562 3906.457031 4198.824219 3926.605469 4203.089844 3943.175781" fill="#f5be51"/></g><g id="change2_8"><path d="M 4481.550781 2561.597656 C 4480.847656 2561.1875 4480.167969 2560.773438 4479.460938 2560.351562 C 4474.070312 2557.054688 4469.214844 2552.988281 4465.320312 2547.976562 C 4459.789062 2540.871094 4445 2513.785156 4461.257812 2509.441406 C 4477.710938 2505.042969 4507.066406 2516.554688 4523.015625 2521.082031 C 4540.316406 2526 4600.804688 2546.914062 4599.875 2567.246094 C 4598.238281 2603.988281 4585.507812 2679.84375 4572.183594 2719.636719 C 4566.230469 2737.511719 4554.855469 2734.570312 4538.933594 2730.570312 C 4522.847656 2726.523438 4469.980469 2706.429688 4464.53125 2702.195312 C 4455.160156 2694.914062 4444.125 2683.910156 4445.929688 2669.703125 C 4447.371094 2658.375 4471.476562 2665.488281 4471.699219 2665.4375 C 4469.695312 2664.339844 4467.691406 2663.199219 4465.746094 2662.007812 C 4460.324219 2658.710938 4455.472656 2654.644531 4451.574219 2649.632812 C 4446.070312 2642.527344 4431.253906 2615.441406 4447.511719 2611.09375 C 4455.105469 2609.070312 4465.40625 2610.417969 4475.878906 2612.90625 C 4474.804688 2612.28125 4473.703125 2611.640625 4472.632812 2610.980469 C 4467.242188 2607.6875 4462.386719 2603.621094 4458.492188 2598.609375 C 4452.957031 2591.503906 4438.167969 2564.421875 4454.398438 2560.074219 C 4461.707031 2558.125 4471.503906 2559.296875 4481.550781 2561.597656" fill="#f56740"/></g><g id="change3_5"><path d="M 559.78125 2561.597656 C 560.480469 2561.183594 561.175781 2560.769531 561.871094 2560.34375 C 567.273438 2557.050781 572.132812 2552.980469 576.023438 2547.976562 C 581.542969 2540.871094 596.34375 2513.78125 580.089844 2509.433594 C 563.640625 2505.039062 534.289062 2516.550781 518.335938 2521.082031 C 501.027344 2525.996094 440.535156 2546.917969 441.457031 2567.246094 C 443.117188 2603.980469 455.84375 2679.839844 469.148438 2719.636719 C 475.125 2737.515625 486.5 2734.578125 502.402344 2730.566406 C 518.480469 2726.527344 571.351562 2706.429688 576.800781 2702.1875 C 586.171875 2694.917969 597.230469 2683.914062 595.410156 2669.707031 C 593.960938 2658.367188 569.871094 2665.484375 569.652344 2665.4375 C 571.65625 2664.335938 573.640625 2663.203125 575.601562 2662.007812 C 581.003906 2658.703125 585.863281 2654.644531 589.757812 2649.625 C 595.273438 2642.523438 610.078125 2615.445312 593.824219 2611.097656 C 586.246094 2609.0625 575.933594 2610.410156 565.457031 2612.90625 C 566.546875 2612.277344 567.632812 2611.636719 568.707031 2610.976562 C 574.113281 2607.6875 578.972656 2603.613281 582.863281 2598.609375 C 588.382812 2591.507812 603.183594 2564.414062 586.929688 2560.066406 C 579.648438 2558.125 569.839844 2559.300781 559.78125 2561.597656" fill="#6e97b6"/></g></g></svg>