<?xml version="1.0" encoding="UTF-8"?><svg xmlns="http://www.w3.org/2000/svg" xmlns:xlink="http://www.w3.org/1999/xlink" height="472.3" preserveAspectRatio="xMidYMid meet" version="1.0" viewBox="-2.9 0.0 491.7 472.3" width="491.7" zoomAndPan="magnify"><g><g id="change1_1"><path d="M 474.953125 236.160156 C 474.953125 364.929688 370.5625 469.320312 241.792969 469.320312 C 113.023438 469.320312 8.632812 364.929688 8.632812 236.160156 C 8.632812 107.390625 113.023438 3 241.792969 3 C 370.5625 3 474.953125 107.390625 474.953125 236.160156" fill="#4cbed7"/></g><g id="change2_1"><path d="M 474.953125 236.160156 C 474.953125 256.265625 472.410156 275.773438 467.625 294.382812 C 422.871094 315.28125 375.222656 249.542969 363.296875 192.277344 C 352.394531 139.933594 315.542969 134.355469 292.339844 130.539062 C 226.789062 119.746094 187.007812 44.664062 210.632812 5.078125 C 220.828125 3.71875 231.226562 3 241.792969 3 C 370.5625 3 474.953125 107.390625 474.953125 236.160156 Z M 153.152344 258.933594 C 147.503906 258.894531 141.847656 253.949219 142.953125 243.578125 C 144.132812 232.53125 152.34375 222.101562 153.152344 221.097656 C 153.960938 222.101562 162.171875 232.53125 163.351562 243.578125 C 164.457031 253.949219 158.800781 258.894531 153.152344 258.933594 Z M 272.296875 279.398438 C 195.027344 285.304688 196.9375 220.832031 187.519531 191.859375 C 162.824219 115.914062 65.515625 136.761719 18.285156 169.625 C 12.015625 190.710938 8.632812 213.039062 8.632812 236.160156 C 8.632812 335.269531 70.476562 419.921875 157.671875 453.667969 C 167.300781 390.511719 222.539062 404.613281 251.101562 407.488281 C 310.847656 413.5 344.664062 367.285156 350.621094 337.453125 C 364.148438 269.722656 296.597656 277.542969 272.296875 279.398438" fill="#2c8082"/></g><g id="change3_1"><path d="M 390.59375 102.261719 C 391.183594 102.917969 392.003906 103.253906 392.824219 103.253906 C 393.539062 103.253906 394.257812 102.996094 394.828125 102.480469 C 396.058594 101.371094 396.160156 99.476562 395.050781 98.246094 C 367.382812 67.527344 331.71875 46.023438 291.914062 36.050781 C 290.3125 35.652344 288.679688 36.625 288.277344 38.230469 C 287.875 39.839844 288.851562 41.46875 290.457031 41.871094 C 329.101562 51.550781 363.726562 72.433594 390.59375 102.261719 Z M 421.085938 134.25 C 420.265625 132.808594 418.433594 132.308594 416.992188 133.128906 C 415.554688 133.949219 415.050781 135.78125 415.871094 137.222656 C 433.007812 167.25 442.0625 201.460938 442.0625 236.160156 C 442.0625 261.429688 437.394531 286.078125 428.191406 309.417969 C 427.582031 310.957031 428.339844 312.699219 429.878906 313.308594 C 430.242188 313.449219 430.613281 313.519531 430.980469 313.519531 C 432.175781 313.519531 433.304688 312.796875 433.773438 311.617188 C 443.253906 287.574219 448.0625 262.1875 448.0625 236.160156 C 448.0625 200.417969 438.734375 165.179688 421.085938 134.25 Z M 404.664062 357.691406 C 403.351562 356.679688 401.46875 356.921875 400.457031 358.234375 C 382.117188 382.011719 358.296875 401.695312 331.570312 415.15625 C 330.089844 415.902344 329.496094 417.707031 330.242188 419.1875 C 330.769531 420.230469 331.824219 420.835938 332.921875 420.835938 C 333.375 420.835938 333.835938 420.734375 334.269531 420.515625 C 361.792969 406.652344 386.324219 386.382812 405.207031 361.898438 C 406.21875 360.585938 405.976562 358.703125 404.664062 357.691406 Z M 160.367188 243.898438 C 159.628906 236.972656 155.738281 230.117188 153.152344 226.226562 C 150.566406 230.117188 146.675781 236.96875 145.9375 243.898438 C 145.488281 248.121094 146.269531 251.5 148.199219 253.660156 C 149.496094 255.113281 151.261719 255.921875 153.175781 255.933594 C 155.042969 255.921875 156.808594 255.113281 158.105469 253.660156 C 160.035156 251.5 160.816406 248.121094 160.367188 243.898438 Z M 155.488281 219.21875 C 156.464844 220.429688 165.070312 231.410156 166.332031 243.261719 C 167.136719 250.785156 164.734375 255.242188 162.582031 257.65625 C 160.140625 260.390625 156.800781 261.910156 153.175781 261.933594 C 149.503906 261.910156 146.164062 260.390625 143.722656 257.65625 C 141.570312 255.242188 139.167969 250.785156 139.972656 243.261719 C 141.234375 231.402344 149.839844 220.429688 150.816406 219.214844 C 151.386719 218.507812 152.246094 218.097656 153.152344 218.097656 C 154.058594 218.097656 154.917969 218.507812 155.488281 219.21875 Z M 255.246094 3.476562 C 133.339844 11.074219 36.8125 112.335938 36.8125 236.160156 C 36.8125 359.984375 133.339844 461.246094 255.246094 468.84375 C 250.375 469.148438 245.46875 469.320312 240.523438 469.320312 C 111.753906 469.320312 7.363281 364.929688 7.363281 236.160156 C 7.363281 107.390625 111.753906 3 240.523438 3 C 245.46875 3 250.375 3.175781 255.246094 3.476562" fill="#fff"/></g><g id="change4_1"><path d="M 472.933594 301.386719 C 471.324219 304.398438 469.0625 307.53125 465.9375 310.660156 C 470.007812 298.398438 473.070312 285.789062 475.082031 272.933594 C 477.273438 280.242188 478.550781 290.886719 472.933594 301.386719 Z M 476.628906 261.117188 C 477.496094 252.867188 477.953125 244.542969 477.953125 236.160156 C 477.953125 218.320312 475.957031 200.539062 472.015625 183.304688 C 471.644531 181.691406 470.035156 180.679688 468.421875 181.050781 C 466.808594 181.417969 465.796875 183.027344 466.164062 184.644531 C 470.007812 201.4375 471.953125 218.769531 471.953125 236.160156 C 471.953125 264.40625 466.808594 292.023438 457.011719 317.851562 C 440.164062 328.960938 409.378906 338.613281 353.714844 340.382812 L 322.316406 327.347656 C 320.789062 326.714844 319.03125 327.4375 318.394531 328.96875 C 317.761719 330.496094 318.484375 332.253906 320.015625 332.890625 L 338.269531 340.46875 L 320.355469 340.542969 C 318.699219 340.550781 317.363281 341.898438 317.371094 343.558594 C 317.378906 345.210938 318.71875 346.542969 320.371094 346.542969 C 320.375 346.542969 320.378906 346.542969 320.382812 346.542969 L 339.074219 346.464844 L 320.058594 355.039062 C 318.546875 355.71875 317.871094 357.496094 318.554688 359.007812 C 319.054688 360.117188 320.148438 360.773438 321.289062 360.773438 C 321.703125 360.773438 322.121094 360.6875 322.523438 360.507812 L 353.863281 346.382812 C 398.386719 344.96875 431.617188 338.511719 453.257812 327.125 C 443.019531 350.917969 428.738281 373.015625 410.765625 392.4375 C 409.640625 393.652344 409.714844 395.550781 410.929688 396.679688 C 411.507812 397.210938 412.238281 397.476562 412.96875 397.476562 C 413.773438 397.476562 414.578125 397.152344 415.167969 396.511719 C 435.515625 374.527344 451.261719 349.207031 461.898438 321.886719 C 469.222656 316.757812 474.691406 310.847656 478.261719 304.148438 C 488.773438 284.40625 478.894531 265.078125 476.628906 261.117188 Z M 262.445312 256.480469 C 263.277344 257.914062 262.789062 259.75 261.355469 260.578125 C 260.882812 260.851562 260.363281 260.984375 259.855469 260.984375 C 258.816406 260.984375 257.8125 260.445312 257.253906 259.488281 C 254.0625 253.972656 248.136719 250.546875 241.792969 250.546875 C 235.453125 250.546875 229.527344 253.972656 226.332031 259.488281 C 225.5 260.921875 223.667969 261.410156 222.230469 260.578125 C 220.800781 259.746094 220.308594 257.914062 221.140625 256.480469 C 225.40625 249.117188 233.316406 244.546875 241.792969 244.546875 C 250.269531 244.546875 258.183594 249.117188 262.445312 256.480469 Z M 295.296875 197.613281 C 296.730469 196.785156 298.5625 197.273438 299.394531 198.707031 C 302.589844 204.222656 308.515625 207.648438 314.855469 207.648438 C 321.199219 207.648438 327.121094 204.222656 330.316406 198.707031 C 331.148438 197.273438 332.984375 196.785156 334.417969 197.613281 C 335.851562 198.445312 336.339844 200.28125 335.511719 201.714844 C 331.246094 209.074219 323.332031 213.648438 314.855469 213.648438 C 306.382812 213.648438 298.46875 209.074219 294.203125 201.714844 C 293.371094 200.28125 293.859375 198.445312 295.296875 197.613281 Z M 150.554688 201.714844 C 149.726562 200.28125 150.214844 198.445312 151.648438 197.613281 C 153.082031 196.785156 154.917969 197.273438 155.746094 198.707031 C 158.941406 204.222656 164.867188 207.648438 171.210938 207.648438 C 177.550781 207.648438 183.476562 204.222656 186.671875 198.707031 C 187.5 197.273438 189.335938 196.785156 190.769531 197.613281 C 192.203125 198.445312 192.691406 200.28125 191.863281 201.714844 C 187.597656 209.074219 179.683594 213.648438 171.210938 213.648438 C 162.734375 213.648438 154.820312 209.074219 150.554688 201.714844 Z M 150.601562 160.910156 C 149.726562 159.503906 150.15625 157.652344 151.566406 156.777344 L 182.726562 137.386719 C 184.132812 136.511719 185.980469 136.941406 186.859375 138.351562 C 187.734375 139.757812 187.300781 141.605469 185.894531 142.480469 L 154.734375 161.871094 C 154.242188 162.179688 153.695312 162.324219 153.152344 162.324219 C 152.148438 162.324219 151.171875 161.820312 150.601562 160.910156 Z M 296.726562 138.351562 C 297.605469 136.941406 299.453125 136.511719 300.859375 137.386719 L 332.019531 156.777344 C 333.429688 157.652344 333.859375 159.503906 332.984375 160.910156 C 332.414062 161.820312 331.4375 162.324219 330.433594 162.324219 C 329.894531 162.324219 329.34375 162.179688 328.851562 161.871094 L 297.691406 142.480469 C 296.285156 141.605469 295.851562 139.757812 296.726562 138.351562 Z M 377.265625 46.351562 C 378.246094 45.015625 380.121094 44.726562 381.460938 45.707031 C 416.34375 71.332031 443.515625 105.929688 460.03125 145.757812 C 460.664062 147.285156 459.9375 149.042969 458.410156 149.675781 C 458.03125 149.832031 457.644531 149.90625 457.261719 149.90625 C 456.082031 149.90625 454.96875 149.210938 454.488281 148.054688 C 438.390625 109.238281 411.910156 75.519531 377.90625 50.542969 C 376.570312 49.5625 376.285156 47.683594 377.265625 46.351562 Z M 13.039062 316.890625 C 5.105469 309.058594 3.988281 294.949219 9.585938 279.449219 C 12.296875 294.171875 16.386719 308.519531 21.796875 322.34375 C 17.859375 320.84375 15.042969 318.863281 13.039062 316.890625 Z M 135.59375 293.011719 L 148.570312 279.746094 L 149.839844 290.527344 Z M 383.425781 417.59375 C 342.652344 449.472656 293.675781 466.320312 241.792969 466.320312 C 148.519531 466.320312 68.027344 410.546875 31.910156 330.597656 C 33.648438 330.742188 35.445312 330.824219 37.3125 330.824219 C 41.183594 330.824219 45.339844 330.511719 49.761719 329.878906 C 70.464844 326.929688 96.757812 317.023438 127.917969 300.4375 L 153.667969 295.953125 C 155.234375 295.679688 156.316406 294.226562 156.132812 292.644531 L 154.253906 276.710938 L 161.285156 277.761719 C 162.917969 278.003906 164.449219 276.875 164.695312 275.238281 C 164.941406 273.597656 163.808594 272.070312 162.171875 271.828125 L 151.257812 270.195312 C 151.234375 270.191406 151.210938 270.195312 151.183594 270.195312 C 151.019531 270.175781 150.851562 270.171875 150.679688 270.179688 C 150.625 270.183594 150.570312 270.179688 150.515625 270.183594 C 150.496094 270.183594 150.480469 270.183594 150.464844 270.183594 C 150.023438 270.234375 149.621094 270.386719 149.269531 270.601562 C 149.21875 270.632812 149.171875 270.667969 149.121094 270.703125 C 148.992188 270.792969 148.867188 270.890625 148.75 271 C 148.726562 271.023438 148.695312 271.039062 148.671875 271.066406 L 125.125 295.128906 C 82.15625 318.003906 54.882812 324.894531 37.617188 324.894531 C 34.480469 324.894531 31.683594 324.660156 29.175781 324.261719 C 17.882812 297.109375 11.632812 267.351562 11.632812 236.160156 C 11.632812 109.25 114.882812 6 241.792969 6 C 278.703125 6 315.394531 14.945312 347.90625 31.867188 C 349.375 32.632812 351.1875 32.0625 351.949219 30.589844 C 352.714844 29.121094 352.144531 27.308594 350.675781 26.546875 C 317.3125 9.179688 279.660156 0 241.792969 0 C 178.714844 0 119.40625 24.566406 74.804688 69.171875 C 30.199219 113.773438 5.632812 173.078125 5.632812 236.160156 C 5.632812 247.039062 6.382812 257.804688 7.820312 268.402344 C -2.945312 289.742188 -2.582031 309.902344 8.828125 321.160156 C 12.941406 325.21875 18.261719 327.996094 24.742188 329.5 C 36.425781 356.65625 53.273438 381.617188 74.804688 403.152344 C 119.40625 447.753906 178.714844 472.320312 241.792969 472.320312 C 295.027344 472.320312 345.28125 455.03125 387.121094 422.320312 C 388.425781 421.300781 388.65625 419.417969 387.636719 418.109375 C 386.617188 416.804688 384.730469 416.574219 383.425781 417.59375" fill="#35142b"/></g></g></svg>