<?xml version="1.0" encoding="UTF-8"?><svg xmlns="http://www.w3.org/2000/svg" xmlns:xlink="http://www.w3.org/1999/xlink" height="463.1" preserveAspectRatio="xMidYMid meet" version="1.0" viewBox="-0.4 0.0 489.7 463.1" width="489.7" zoomAndPan="magnify"><g><g id="change1_1"><path d="M 472.992188 231.558594 C 472.992188 357.789062 370.660156 460.121094 244.429688 460.121094 C 118.199219 460.121094 15.871094 357.789062 15.871094 231.558594 C 15.871094 105.328125 118.199219 3 244.429688 3 C 370.660156 3 472.992188 105.328125 472.992188 231.558594" fill="#6fcebd"/></g><g id="change2_1"><path d="M 173.886719 146.902344 C 151.648438 137.671875 84.265625 132.675781 92.324219 198.113281 C 95.46875 223.613281 124.417969 262.402344 111.292969 299.117188 C 102.71875 323.097656 95.113281 382.367188 160.609375 388.265625 C 175.085938 389.566406 214.65625 389.292969 192.855469 339.894531 C 184.261719 320.421875 170.035156 286.757812 199.566406 255.015625 C 232.214844 219.925781 243.59375 175.824219 173.886719 146.902344 Z M 461.179688 158.855469 C 441.90625 163.898438 419.804688 159.867188 406.175781 160.914062 C 334.894531 166.386719 357.765625 220.242188 370.316406 237.15625 C 446.121094 339.316406 330.09375 317.113281 303.570312 323.59375 C 258.195312 334.675781 283.992188 382.289062 294.632812 397.585938 C 314.460938 426.089844 298.9375 442.835938 286.339844 456.273438 C 392.554688 436.585938 472.992188 343.472656 472.992188 231.558594 C 472.992188 206.140625 468.835938 181.695312 461.179688 158.855469 Z M 181.445312 11.792969 C 201.457031 6.070312 222.585938 3 244.429688 3 C 321.261719 3 389.238281 40.910156 430.675781 99.046875 C 402.003906 122.539062 341.003906 133.90625 287.511719 112.519531 C 256.628906 100.171875 178.210938 54.207031 181.445312 11.792969" fill="#37b677"/></g><g id="change3_1"><path d="M 353.011719 238.121094 L 335.949219 255.183594 C 334.777344 256.355469 334.777344 258.253906 335.949219 259.425781 C 336.535156 260.011719 337.300781 260.304688 338.070312 260.304688 C 338.839844 260.304688 339.605469 260.011719 340.191406 259.425781 L 357.253906 242.363281 C 358.425781 241.191406 358.425781 239.292969 357.253906 238.121094 C 356.082031 236.949219 354.183594 236.949219 353.011719 238.121094 Z M 363.867188 260.304688 C 364.636719 260.304688 365.402344 260.011719 365.988281 259.425781 L 383.050781 242.363281 C 384.222656 241.191406 384.222656 239.292969 383.050781 238.121094 C 381.878906 236.949219 379.980469 236.949219 378.808594 238.121094 L 361.746094 255.183594 C 360.574219 256.355469 360.574219 258.253906 361.746094 259.425781 C 362.332031 260.011719 363.101562 260.304688 363.867188 260.304688 Z M 122.875 238.121094 L 105.8125 255.183594 C 104.640625 256.355469 104.640625 258.253906 105.8125 259.425781 C 106.398438 260.011719 107.167969 260.304688 107.933594 260.304688 C 108.703125 260.304688 109.46875 260.011719 110.054688 259.425781 L 127.117188 242.363281 C 128.289062 241.191406 128.289062 239.292969 127.117188 238.121094 C 125.945312 236.949219 124.046875 236.949219 122.875 238.121094 Z M 152.914062 238.121094 C 154.085938 239.292969 154.085938 241.191406 152.914062 242.363281 L 135.851562 259.425781 C 135.265625 260.011719 134.5 260.304688 133.730469 260.304688 C 132.964844 260.304688 132.195312 260.011719 131.609375 259.425781 C 130.4375 258.253906 130.4375 256.355469 131.609375 255.183594 L 148.671875 238.121094 C 149.84375 236.949219 151.742188 236.949219 152.914062 238.121094" fill="#e15598"/></g><g id="change4_1"><path d="M 316.199219 48.886719 C 348.929688 61.792969 377.710938 83.375 399.425781 111.300781 C 404.105469 117.316406 408.476562 123.664062 412.414062 130.164062 C 412.976562 131.09375 413.96875 131.609375 414.984375 131.609375 C 415.511719 131.609375 416.046875 131.46875 416.535156 131.175781 C 417.953125 130.316406 418.40625 128.472656 417.546875 127.054688 C 413.488281 120.355469 408.984375 113.816406 404.164062 107.617188 C 381.789062 78.84375 352.128906 56.605469 318.398438 43.304688 C 316.859375 42.695312 315.117188 43.453125 314.507812 44.996094 C 313.898438 46.535156 314.65625 48.277344 316.199219 48.886719 Z M 436.835938 169.136719 C 436.320312 167.5625 434.625 166.699219 433.054688 167.210938 C 431.476562 167.722656 430.617188 169.414062 431.128906 170.992188 C 437.472656 190.5 440.691406 210.878906 440.691406 231.558594 C 440.691406 284.265625 420.003906 333.773438 382.445312 370.964844 C 381.265625 372.128906 381.257812 374.027344 382.421875 375.207031 C 383.011719 375.796875 383.78125 376.09375 384.554688 376.09375 C 385.316406 376.09375 386.082031 375.804688 386.664062 375.226562 C 425.371094 336.902344 446.691406 285.878906 446.691406 231.558594 C 446.691406 210.246094 443.375 189.246094 436.835938 169.136719 Z M 353.46875 394.671875 C 321.132812 416.355469 283.429688 427.816406 244.429688 427.816406 C 242.773438 427.816406 241.429688 429.160156 241.429688 430.816406 C 241.429688 432.476562 242.773438 433.816406 244.429688 433.816406 C 284.625 433.816406 323.484375 422.003906 356.808594 399.652344 C 358.183594 398.730469 358.550781 396.867188 357.628906 395.492188 C 356.707031 394.113281 354.84375 393.746094 353.46875 394.671875 Z M 194.144531 208.550781 L 156.265625 208.550781 C 156.265625 219.011719 164.746094 227.492188 175.207031 227.492188 C 185.664062 227.492188 194.144531 219.011719 194.144531 208.550781 Z M 197.347656 208.550781 L 200.554688 208.550781 C 200.554688 222.53125 189.183594 233.902344 175.207031 233.902344 C 161.226562 233.902344 149.855469 222.53125 149.855469 208.550781 Z M 302.523438 208.550781 C 302.523438 219.011719 311.003906 227.492188 321.460938 227.492188 C 331.921875 227.492188 340.398438 219.011719 340.398438 208.550781 Z M 296.113281 208.550781 L 346.8125 208.550781 C 346.8125 222.53125 335.4375 233.902344 321.460938 233.902344 C 307.484375 233.902344 296.113281 222.53125 296.113281 208.550781 Z M 258.863281 459.652344 C 254.089844 459.949219 249.28125 460.121094 244.429688 460.121094 C 118.199219 460.121094 15.871094 357.789062 15.871094 231.558594 C 15.871094 105.328125 118.199219 3 244.429688 3 C 249.28125 3 254.089844 3.167969 258.863281 3.464844 C 139.359375 10.914062 44.738281 110.179688 44.738281 231.558594 C 44.738281 352.941406 139.359375 452.203125 258.863281 459.652344" fill="#fff"/></g><g id="change5_1"><path d="M 161.378906 171.566406 C 164.5 166.179688 170.289062 162.832031 176.484375 162.832031 C 182.679688 162.832031 188.46875 166.179688 191.589844 171.566406 C 192.148438 172.527344 193.152344 173.0625 194.1875 173.0625 C 194.699219 173.0625 195.214844 172.933594 195.691406 172.660156 C 197.125 171.828125 197.613281 169.992188 196.78125 168.558594 C 192.589844 161.328125 184.8125 156.832031 176.484375 156.832031 C 168.15625 156.832031 160.378906 161.328125 156.1875 168.558594 C 155.359375 169.992188 155.847656 171.828125 157.28125 172.660156 C 158.714844 173.492188 160.550781 173 161.378906 171.566406 Z M 488.5 444.273438 L 473.542969 414.363281 L 473.542969 265.332031 C 474.328125 259.929688 474.9375 254.484375 475.34375 248.996094 C 475.46875 247.34375 474.226562 245.90625 472.574219 245.78125 C 470.902344 245.65625 469.484375 246.898438 469.359375 248.550781 C 467.109375 278.816406 458.9375 307.804688 445.078125 334.710938 C 444.320312 336.183594 444.898438 337.992188 446.371094 338.75 C 446.8125 338.976562 447.28125 339.082031 447.742188 339.082031 C 448.832031 339.082031 449.878906 338.488281 450.414062 337.457031 C 457.644531 323.421875 463.359375 308.828125 467.542969 293.796875 L 467.542969 414.363281 L 452.585938 444.273438 C 451.84375 445.757812 452.445312 447.558594 453.925781 448.300781 C 454.359375 448.515625 454.816406 448.617188 455.265625 448.617188 C 456.367188 448.617188 457.425781 448.011719 457.953125 446.960938 L 467.542969 427.78125 L 467.542969 445.617188 C 467.542969 447.273438 468.882812 448.617188 470.542969 448.617188 C 472.199219 448.617188 473.542969 447.273438 473.542969 445.617188 L 473.542969 427.777344 L 483.132812 446.960938 C 483.875 448.441406 485.675781 449.042969 487.15625 448.300781 C 488.636719 447.558594 489.238281 445.757812 488.5 444.273438 Z M 299.59375 173.0625 C 300.628906 173.0625 301.636719 172.527344 302.191406 171.566406 C 305.3125 166.179688 311.101562 162.832031 317.296875 162.832031 C 323.492188 162.832031 329.28125 166.179688 332.402344 171.566406 C 333.234375 173 335.066406 173.492188 336.503906 172.660156 C 337.9375 171.828125 338.425781 169.992188 337.59375 168.558594 C 333.40625 161.328125 325.628906 156.832031 317.296875 156.832031 C 308.96875 156.832031 301.191406 161.328125 297.003906 168.558594 C 296.171875 169.992188 296.660156 171.828125 298.09375 172.660156 C 298.566406 172.933594 299.085938 173.0625 299.59375 173.0625 Z M 292.285156 208.535156 C 292.285156 210.191406 293.628906 211.535156 295.285156 211.535156 L 302.78125 211.535156 C 304.214844 220.574219 312.019531 227.492188 321.460938 227.492188 C 330.902344 227.492188 338.710938 220.574219 340.140625 211.535156 L 347.605469 211.535156 C 349.261719 211.535156 350.605469 210.191406 350.605469 208.535156 C 350.605469 206.878906 349.261719 205.535156 347.605469 205.535156 L 295.285156 205.535156 C 293.628906 205.535156 292.285156 206.878906 292.285156 208.535156 Z M 146.046875 208.554688 C 146.046875 210.210938 147.390625 211.554688 149.046875 211.554688 L 156.527344 211.554688 C 157.96875 220.582031 165.769531 227.492188 175.207031 227.492188 C 184.640625 227.492188 192.441406 220.582031 193.882812 211.554688 L 201.363281 211.554688 C 203.019531 211.554688 204.363281 210.210938 204.363281 208.554688 C 204.363281 206.894531 203.019531 205.554688 201.363281 205.554688 L 149.046875 205.554688 C 147.390625 205.554688 146.046875 206.894531 146.046875 208.554688 Z M 227.441406 237.242188 C 225.785156 237.242188 224.441406 238.585938 224.441406 240.242188 C 224.441406 241.898438 225.785156 243.242188 227.441406 243.242188 L 269.222656 243.242188 C 270.882812 243.242188 272.222656 241.898438 272.222656 240.242188 C 272.222656 238.585938 270.882812 237.242188 269.222656 237.242188 Z M 426.386719 369.933594 C 425.078125 368.910156 423.195312 369.140625 422.175781 370.445312 C 379.070312 425.527344 314.289062 457.121094 244.429688 457.121094 C 120.058594 457.121094 18.871094 355.933594 18.871094 231.558594 C 18.871094 107.1875 120.058594 6 244.429688 6 C 287.886719 6 330.078125 18.382812 366.4375 41.8125 C 367.832031 42.710938 369.6875 42.308594 370.585938 40.914062 C 371.484375 39.523438 371.082031 37.664062 369.6875 36.769531 C 332.355469 12.714844 289.042969 0 244.429688 0 C 182.578125 0 124.429688 24.085938 80.695312 67.820312 C 36.957031 111.558594 12.871094 169.707031 12.871094 231.558594 C 12.871094 242.882812 13.6875 254.078125 15.273438 265.085938 C 15.273438 265.085938 15.273438 265.085938 15.273438 265.089844 L 15.273438 414.363281 L 0.316406 444.273438 C -0.421875 445.757812 0.175781 447.558594 1.660156 448.300781 C 3.140625 449.042969 4.941406 448.441406 5.683594 446.960938 L 15.273438 427.777344 L 15.273438 445.617188 C 15.273438 447.273438 16.617188 448.617188 18.273438 448.617188 C 19.929688 448.617188 21.273438 447.273438 21.273438 445.617188 L 21.273438 427.777344 L 30.863281 446.960938 C 31.390625 448.011719 32.449219 448.617188 33.546875 448.617188 C 34 448.617188 34.457031 448.515625 34.886719 448.300781 C 36.371094 447.558594 36.96875 445.757812 36.230469 444.273438 L 21.273438 414.363281 L 21.273438 293.75 C 31.808594 331.78125 52.03125 366.632812 80.695312 395.296875 C 124.429688 439.035156 182.578125 463.121094 244.429688 463.121094 C 316.144531 463.121094 382.652344 430.6875 426.898438 374.144531 C 427.921875 372.839844 427.691406 370.953125 426.386719 369.933594 Z M 406.4375 74.617188 C 405.285156 73.425781 405.316406 71.527344 406.503906 70.375 C 407.695312 69.222656 409.59375 69.25 410.746094 70.441406 C 447.753906 108.636719 470.625 158.757812 475.140625 211.574219 C 475.28125 213.222656 474.058594 214.675781 472.40625 214.816406 C 472.320312 214.824219 472.234375 214.828125 472.148438 214.828125 C 470.605469 214.828125 469.296875 213.648438 469.164062 212.085938 C 464.761719 160.640625 442.488281 111.820312 406.4375 74.617188" fill="#35142b"/></g></g></svg>