<?xml version="1.0" standalone="no"?>
<!DOCTYPE svg PUBLIC "-//W3C//DTD SVG 20010904//EN"
 "http://www.w3.org/TR/2001/REC-SVG-20010904/DTD/svg10.dtd">
<svg version="1.0" xmlns="http://www.w3.org/2000/svg"
 width="1006.000000pt" height="1006.000000pt" viewBox="0 0 1006.000000 1006.000000"
 preserveAspectRatio="xMidYMid meet">
<metadata>
Created by potrace 1.11, written by Peter Selinger 2001-2013
</metadata>
<g transform="translate(0.000000,1006.000000) scale(0.100000,-0.100000)"
fill="#000000" stroke="none">
<path d="M4765 9834 c-243 -16 -580 -62 -788 -109 -1601 -360 -2912 -1514
-3474 -3058 -127 -351 -213 -719 -259 -1117 -23 -201 -30 -639 -13 -856 20
-265 19 -284 -24 -386 -78 -181 -102 -352 -73 -518 41 -234 173 -434 396 -601
75 -57 75 -57 133 -185 280 -615 732 -1208 1267 -1660 1361 -1151 3260 -1451
4915 -777 291 119 598 281 860 456 231 154 481 354 491 393 10 37 -19 74 -59
74 -26 0 -54 -18 -142 -90 -153 -126 -374 -282 -545 -385 -168 -101 -510 -271
-690 -343 -117 -47 -463 -162 -486 -162 -6 0 -34 48 -61 108 -271 577 -435
1115 -489 1602 -20 183 -15 539 10 673 55 290 167 519 341 692 142 141 282
219 575 320 476 164 704 347 787 631 15 53 17 119 17 634 1 595 2 613 47 885
95 572 305 1043 629 1412 33 37 60 72 60 77 0 5 -21 34 -47 65 -230 270 -479
500 -761 701 -57 40 -107 83 -112 94 -15 43 21 96 66 96 24 0 212 -134 362
-258 186 -155 436 -403 569 -566 l31 -39 74 60 c101 82 186 138 301 199 l98
51 -47 59 c-76 94 -171 202 -267 300 -82 85 -87 93 -78 117 16 41 1 65 -85
143 -374 337 -742 588 -1159 789 -519 251 -1019 393 -1620 460 -134 15 -618
27 -750 19z m525 -133 l65 -6 27 -105 c57 -217 79 -477 59 -682 -42 -426 -285
-828 -676 -1118 -142 -106 -274 -184 -582 -346 -149 -78 -297 -159 -327 -180
l-57 -37 -82 29 c-146 51 -312 33 -438 -47 -58 -37 -143 -126 -166 -174 -16
-33 -16 -39 -2 -63 11 -20 24 -28 51 -30 34 -3 40 1 78 50 102 130 236 182
393 153 45 -9 54 -20 34 -43 -32 -37 -60 -109 -65 -167 -8 -108 42 -235 159
-399 84 -117 186 -220 399 -402 313 -266 458 -420 556 -587 114 -193 138 -395
73 -591 -22 -64 -56 -136 -65 -136 -14 0 -56 116 -61 167 -3 32 -10 66 -15 76
-22 44 -103 36 -114 -10 -15 -56 5 -155 46 -238 21 -44 46 -89 55 -101 14 -20
12 -24 -44 -86 -64 -70 -170 -147 -266 -195 -180 -90 -477 -147 -875 -168
-718 -37 -911 -84 -1090 -265 -94 -94 -140 -185 -240 -470 -120 -341 -169
-451 -263 -592 -28 -42 -36 -47 -67 -48 -31 0 -216 36 -435 84 -167 37 -423
130 -570 209 l-80 43 -52 130 c-59 147 -126 362 -177 569 -159 638 -172 1393
-36 2051 121 579 361 1151 693 1649 577 865 1447 1528 2428 1850 108 35 250
78 316 94 232 59 597 117 843 134 83 6 504 5 570 -2z m1405 -3416 c122 -32
249 -123 315 -225 111 -173 112 -406 2 -576 -176 -272 -560 -325 -799 -110
-180 162 -228 409 -121 626 110 225 366 346 603 285z m691 -1243 c22 -15 34
-50 25 -74 -5 -13 -94 -107 -198 -210 -197 -196 -215 -208 -255 -171 -10 9
-18 30 -18 47 0 26 26 57 193 223 192 193 216 210 253 185z m-7010 -1237 c19
-77 57 -205 84 -285 l48 -145 -61 65 c-152 161 -219 374 -188 590 7 45 17 94
23 109 9 23 13 14 34 -84 13 -60 40 -173 60 -250z m495 -806 c112 -56 525
-177 732 -214 l98 -18 -22 -23 c-12 -13 -51 -42 -85 -65 -74 -48 -78 -26 39
-209 70 -109 255 -370 262 -370 1 0 45 20 98 44 144 67 355 132 522 162 812
143 1582 -241 2024 -1011 161 -279 283 -647 303 -910 4 -49 11 -48 -209 -29
-1424 122 -2705 880 -3501 2072 -97 145 -212 341 -286 490 -62 124 -62 125 25
81z"/>
<path d="M3428 6160 c-201 -35 -340 -214 -325 -420 9 -144 90 -261 224 -327
70 -35 82 -37 167 -38 82 0 98 3 158 32 90 42 160 110 201 192 30 62 32 72 31
171 0 91 -3 112 -26 162 -75 162 -256 258 -430 228z m38 -121 c56 -27 89 -89
79 -150 -9 -51 -61 -105 -109 -114 -167 -32 -246 186 -96 263 54 27 72 28 126
1z m211 -374 c32 -32 35 -39 30 -78 -11 -79 -86 -119 -157 -82 -37 19 -50 43
-50 90 0 46 13 71 48 89 48 27 90 20 129 -19z"/>
<path d="M6498 6160 c-272 -47 -412 -356 -271 -597 35 -60 105 -120 181 -156
59 -28 77 -31 157 -32 81 0 97 3 157 32 90 42 160 110 201 192 30 61 32 72 32
171 0 119 -16 168 -82 248 -90 110 -237 166 -375 142z m38 -121 c32 -15 48
-32 65 -65 81 -168 -169 -289 -253 -123 -37 72 -11 149 62 187 54 27 72 28
126 1z m210 -373 c26 -26 34 -42 34 -71 0 -49 -53 -105 -99 -105 -39 0 -87 24
-101 49 -13 25 -13 87 0 111 14 27 59 49 99 50 25 0 42 -9 67 -34z"/>
<path d="M9097 7442 c-25 -27 -21 -53 19 -124 120 -209 293 -603 369 -838 15
-47 34 -91 43 -97 40 -32 102 -2 102 49 0 29 -60 209 -127 378 -76 192 -269
585 -311 633 -20 23 -74 22 -95 -1z"/>
<path d="M9680 5820 c-26 -26 -25 -32 7 -280 25 -197 25 -824 0 -1030 -39
-313 -82 -528 -163 -809 -43 -147 -130 -394 -160 -452 -22 -44 -299 -170 -511
-233 -366 -109 -828 -178 -1383 -205 l-155 -7 -95 37 c-52 21 -198 81 -325
133 -126 53 -242 96 -256 96 -49 0 -77 -63 -46 -102 6 -9 80 -44 162 -78 229
-95 228 -89 23 -90 l-177 0 -20 -26 c-25 -31 -26 -52 -5 -79 14 -18 30 -20
206 -25 l192 -5 -188 -85 c-103 -46 -192 -92 -197 -101 -23 -43 7 -99 53 -99
13 0 167 65 343 144 l320 144 205 11 c427 23 858 77 896 112 23 22 38 24 99
14 73 -12 501 107 684 191 41 19 75 34 77 34 3 0 -23 -53 -55 -118 -68 -135
-193 -351 -275 -474 -60 -89 -64 -102 -40 -136 15 -22 66 -30 90 -14 16 10
148 214 224 347 35 61 108 200 162 311 86 177 102 204 137 227 135 89 279 253
345 390 60 125 80 215 80 357 1 166 -34 312 -106 453 -20 39 -20 46 -8 152 21
184 24 712 6 915 -31 349 -39 382 -98 395 -19 5 -32 1 -48 -15z m127 -1855 c8
-126 -14 -233 -72 -350 -41 -82 -132 -206 -162 -219 -6 -2 4 41 23 97 48 142
108 361 139 513 15 71 29 136 33 144 8 24 32 -88 39 -185z"/>
</g>
</svg>
